<svg width="20" height="20" viewBox="0 0 20 20" fill="none" xmlns="http://www.w3.org/2000/svg">
<path fill-rule="evenodd" clip-rule="evenodd" d="M9.07818 11.8768H12.9812C13.2753 11.8768 13.5193 11.6304 13.5193 11.3333C13.5193 11.0362 13.2753 10.797 12.9812 10.797H9.07818C8.78402 10.797 8.54009 11.0362 8.54009 11.3333C8.54009 11.6304 8.78402 11.8768 9.07818 11.8768ZM11.5032 7.17386H9.07818C8.78402 7.17386 8.54009 7.42023 8.54009 7.71734C8.54009 8.01444 8.78402 8.25357 9.07818 8.25357H11.5032C11.7974 8.25357 12.0413 8.01444 12.0413 7.71734C12.0413 7.42023 11.7974 7.17386 11.5032 7.17386ZM16.6233 6.54024C16.792 6.53829 16.9756 6.53618 17.1425 6.53618C17.3218 6.53618 17.4653 6.6811 17.4653 6.86226V12.6883C17.4653 14.4855 16.0232 15.942 14.2439 15.942H8.53291C6.66751 15.942 5.14648 14.413 5.14648 12.5289V4.71733C5.14648 2.92023 6.59576 1.44922 8.38224 1.44922H12.2135C12.4 1.44922 12.5435 1.60139 12.5435 1.78255V4.11589C12.5435 5.44197 13.6269 6.52893 14.9399 6.53618C15.2465 6.53618 15.5169 6.53847 15.7535 6.54047C15.9376 6.54203 16.1012 6.54342 16.2456 6.54342C16.3478 6.54342 16.4802 6.54189 16.6233 6.54024ZM16.8212 5.48255C16.2314 5.48473 15.5362 5.48255 15.0361 5.47748C14.2426 5.47748 13.589 4.81733 13.589 4.01589V2.10574C13.589 1.79342 13.9642 1.63835 14.1788 1.86371C14.5671 2.27157 15.1009 2.83224 15.6321 3.39032C16.1618 3.94672 16.689 4.50054 17.0673 4.89777C17.2768 5.11733 17.1232 5.48183 16.8212 5.48255Z" fill="#565656"/>
<path fill-rule="evenodd" clip-rule="evenodd" d="M10.68 4.61001H5.85901C4.35176 4.60421 3.11626 5.80566 3.08075 7.31218V15.0752C3.04742 16.6064 4.26118 17.8752 5.79234 17.9093C5.81481 17.9093 5.83655 17.91 5.85901 17.9093H11.6481C13.1655 17.8477 14.3612 16.5941 14.3503 15.0752V8.43319L10.68 4.61001Z" fill="white" stroke="#565656" stroke-width="1.5" stroke-linecap="round" stroke-linejoin="round"/>
<path fill-rule="evenodd" clip-rule="evenodd" d="M10.4902 4.60144V6.70941C10.4902 7.7384 11.3221 8.57246 12.3511 8.57535H14.3475" fill="white"/>
<path d="M10.4902 4.60144V6.70941C10.4902 7.7384 11.3221 8.57246 12.3511 8.57535H14.3475" stroke="#565656" stroke-width="1.5" stroke-linecap="round" stroke-linejoin="round"/>
<path fill-rule="evenodd" clip-rule="evenodd" d="M10.3545 13.7381H6.44141H10.3545Z" fill="white"/>
<path d="M10.3545 13.7381H6.44141" stroke="#565656" stroke-width="1.5" stroke-linecap="round" stroke-linejoin="round"/>
<path fill-rule="evenodd" clip-rule="evenodd" d="M8.87329 11.0188H6.44141H8.87329Z" fill="white"/>
<path d="M8.87329 11.0188H6.44141" stroke="#565656" stroke-width="1.5" stroke-linecap="round" stroke-linejoin="round"/>
</svg>
