<svg width="16" height="16" viewBox="0 0 16 16" fill="none" xmlns="http://www.w3.org/2000/svg">
<path fill-rule="evenodd" clip-rule="evenodd" d="M14.5853 0.865902L15.1341 1.4148C15.368 1.64852 15.4996 1.96561 15.4999 2.29635V2.92841C15.5041 3.26491 15.3721 3.58881 15.1341 3.8266L13.5959 5.34021C13.5179 5.41893 13.4116 5.46321 13.3008 5.46321C13.1899 5.46321 13.0837 5.41893 13.0056 5.34021L10.6693 2.96999C10.5109 2.8083 10.5109 2.54953 10.6693 2.38783L12.1742 0.865902C12.4119 0.627771 12.7357 0.495809 13.0721 0.499974H13.704C14.0347 0.500265 14.3517 0.631887 14.5853 0.865902ZM12.0162 6.90372C12.1747 6.74203 12.1747 6.48326 12.0162 6.32157L9.63834 3.9763C9.56028 3.89757 9.45403 3.85329 9.34318 3.85329C9.23234 3.85329 9.12608 3.89757 9.04802 3.9763L2.3384 10.6878C2.17619 10.8486 2.04883 11.0411 1.96426 11.2533L0.534205 14.8627C0.453195 15.05 0.520129 15.2685 0.692176 15.3783C0.81001 15.496 0.986679 15.532 1.14115 15.4698L4.74954 14.0061C4.96169 13.9215 5.15415 13.7941 5.31491 13.6318L12.0162 6.90372Z" fill="#565656"/>
</svg>
