<svg width="18" height="19" viewBox="0 0 18 19" fill="none" xmlns="http://www.w3.org/2000/svg">
<path d="M17.4999 7H12.4999C12.2238 7 11.9999 6.77615 11.9999 6.5V6.21C11.9979 6.07442 12.0523 5.94408 12.1499 5.85L13.9299 4.07C12.6297 2.74829 10.854 2.00273 8.99991 2C5.19706 2.00858 2.09669 5.05171 2.01723 8.85374C1.93778 12.6558 4.90832 15.8258 8.70749 15.9932C12.5067 16.1606 15.7446 13.2643 15.9999 9.47C16.0158 9.20564 16.2351 8.99953 16.4999 9H17.4999C17.6362 9.00406 17.7655 9.06152 17.8599 9.16C17.9518 9.26049 17.9988 9.39411 17.9899 9.53C17.7415 13.767 14.5668 17.2546 10.3717 17.899C6.17666 18.5434 2.10156 16.1694 0.593009 12.2022C-0.91554 8.23509 0.552524 3.75321 4.11582 1.44738C7.67911 -0.858451 12.369 -0.361447 15.3699 2.64L16.8599 1.15C16.9516 1.05486 17.0778 1.00077 17.2099 1H17.4999C17.7761 1 17.9999 1.22386 17.9999 1.5V6.5C17.9999 6.77615 17.7761 7 17.4999 7Z" fill="#972FE9"/>
</svg>
