<svg width="21" height="9" viewBox="0 0 21 9" fill="none" xmlns="http://www.w3.org/2000/svg">
<path d="M10.4801 1C13.0514 0.959087 15.5462 1.87502 17.4801 3.57L19.9001 1.15C19.9819 1.06414 20.0921 1.01085 20.2101 1H20.5001C20.7763 1 21.0001 1.22386 21.0001 1.5V8.5C21.0001 8.77614 20.7763 9 20.5001 9H13.5001C13.224 9 13.0001 8.77614 13.0001 8.5V8.21C12.9982 8.07442 13.0525 7.94408 13.1501 7.85L15.6701 5.33C14.2154 4.11768 12.3736 3.46825 10.4801 3.5C6.81014 3.5 3.79014 5.73 3.48014 8.55C3.45961 8.80109 3.25203 8.9957 3.00014 9H1.50014C1.3603 9.00045 1.22666 8.94232 1.13166 8.83971C1.03665 8.7371 0.988952 8.59939 1.00014 8.46C1.33014 4.29 5.45014 1 10.4801 1Z" fill="#972FE9"/>
</svg>
