<svg width="20" height="16" viewBox="0 0 20 16" fill="none" xmlns="http://www.w3.org/2000/svg">
<path d="M10 0C4.48 0 0 3.13137 0 7.00307C0.138675 9.24364 1.44012 11.2479 3.43 12.2854C4.84947 13.1118 6.46791 13.5339 8.11 13.5059H9V15.5068C9.00281 15.7069 9.12459 15.8861 9.30958 15.9623C9.49457 16.0385 9.70715 15.9971 9.85 15.8569L12.85 12.8556C13.0406 12.6611 13.0406 12.3498 12.85 12.1553L9.85 9.15401C9.70715 9.01389 9.49457 8.97244 9.30958 9.04865C9.12459 9.12485 9.00281 9.30404 9 9.50416V11.505H8.11C6.83459 11.5325 5.57592 11.2108 4.47 10.5746C3.08269 9.89388 2.14768 8.54187 2 7.00307C2 4.29188 5.66 2.00088 10 2.00088C14.34 2.00088 18 4.29188 18 7.00307C17.866 8.46863 17.0007 9.76715 15.7 10.4546C15.5894 10.5245 15.5114 10.6357 15.4832 10.7634C15.455 10.8912 15.4791 11.0249 15.55 11.1349L16.08 11.9953C16.2294 12.2258 16.5344 12.2965 16.77 12.1553C18.6625 11.1098 19.8832 9.16273 20 7.00307C20 3.13137 15.52 0 10 0Z" fill="#972FE9"/>
</svg>
