<svg width="22" height="9" viewBox="0 0 22 9" fill="none" xmlns="http://www.w3.org/2000/svg">
<path d="M21 8.46C21.0112 8.59939 20.9635 8.7371 20.8685 8.83971C20.7735 8.94232 20.6398 9.00045 20.5 9H19C18.7443 9.00086 18.5309 8.80489 18.51 8.55C18.22 5.73 15.2 3.5 11.51 3.5C9.61657 3.46825 7.77474 4.11768 6.31999 5.33L8.83999 7.85C8.93765 7.94408 8.99196 8.07442 8.98999 8.21V8.5C8.98999 8.77614 8.76613 9 8.48999 9H1.48999C1.21385 9 0.98999 8.77614 0.98999 8.5V1.5C0.989963 1.36564 1.04401 1.23693 1.13995 1.14287C1.2359 1.0488 1.36566 0.997314 1.49999 1H1.78999C1.92558 0.998035 2.05591 1.05234 2.14999 1.15L4.56999 3.57C6.50395 1.87502 8.99871 0.959087 11.57 1C16.55 1 20.67 4.29 21 8.46Z" fill="#972FE9"/>
</svg>
