<svg width="14" height="17" viewBox="0 0 14 17" fill="none" xmlns="http://www.w3.org/2000/svg">
<path d="M12.3972 5.8767C12.5523 5.8767 12.6929 5.94437 12.8041 6.0587C12.9078 6.1808 12.96 6.33247 12.9448 6.49268C12.9448 6.54557 12.5303 11.7876 12.2936 13.9941C12.1453 15.3481 11.2724 16.1702 9.96307 16.1928C8.95629 16.2153 7.9722 16.2231 7.00324 16.2231C5.97453 16.2231 4.9685 16.2153 3.99198 16.1928C2.72651 16.1624 1.85286 15.3256 1.71216 13.9941C1.4686 11.7798 1.06165 6.54557 1.05409 6.49268C1.04653 6.33247 1.09796 6.1808 1.20235 6.0587C1.30522 5.94437 1.45347 5.8767 1.60929 5.8767H12.3972ZM8.60615 0.667969C9.29372 0.667969 9.90793 1.14784 10.0857 1.83226L10.2128 2.40001C10.3156 2.86277 10.7165 3.19021 11.1779 3.19021H13.4456C13.7482 3.19021 14.0001 3.44142 14.0001 3.76107V4.05662C14.0001 4.3685 13.7482 4.62749 13.4456 4.62749H0.555692C0.252372 4.62749 0.000488281 4.3685 0.000488281 4.05662V3.76107C0.000488281 3.44142 0.252372 3.19021 0.555692 3.19021H2.8234C3.28406 3.19021 3.68495 2.86277 3.78858 2.40079L3.90734 1.87037C4.0919 1.14784 4.6993 0.667969 5.39444 0.667969H8.60615Z" fill="white"/>
</svg>
