<svg width="12" height="11" viewBox="0 0 12 11" fill="none" xmlns="http://www.w3.org/2000/svg">
<path d="M0.861 11C0.735 11 0.623 10.958 0.525 10.874C0.441 10.776 0.399 10.664 0.399 10.538C0.399 10.496 0.406 10.447 0.42 10.391C0.448 10.321 0.483 10.258 0.525 10.202L4.074 5.393L0.819 0.878C0.777 0.821999 0.742 0.765999 0.714 0.71C0.7 0.654 0.693 0.598 0.693 0.541999C0.693 0.415999 0.735 0.311 0.819 0.227C0.917 0.128999 1.029 0.0799991 1.155 0.0799991H3.339C3.507 0.0799991 3.633 0.121999 3.717 0.206C3.815 0.29 3.885 0.367 3.927 0.437L6.09 3.377L8.253 0.457999C8.309 0.387999 8.379 0.311 8.463 0.227C8.547 0.128999 8.68 0.0799991 8.862 0.0799991H10.941C11.067 0.0799991 11.172 0.128999 11.256 0.227C11.354 0.311 11.403 0.415999 11.403 0.541999C11.403 0.598 11.396 0.654 11.382 0.71C11.368 0.765999 11.333 0.821999 11.277 0.878L7.959 5.414L11.55 10.202C11.592 10.258 11.62 10.314 11.634 10.37C11.662 10.426 11.676 10.482 11.676 10.538C11.676 10.664 11.627 10.776 11.529 10.874C11.445 10.958 11.34 11 11.214 11H8.925C8.771 11 8.652 10.965 8.568 10.895C8.484 10.811 8.414 10.734 8.358 10.664L6.027 7.556L3.654 10.664C3.612 10.72 3.549 10.79 3.465 10.874C3.381 10.958 3.255 11 3.087 11H0.861Z" fill="white"/>
</svg>
