<svg width="16" height="17" viewBox="0 0 16 17" fill="none" xmlns="http://www.w3.org/2000/svg">
<path d="M11.472 0.5C14.184 0.5 16 2.404 16 5.236V11.7728C16 14.596 14.184 16.5 11.472 16.5H4.536C1.824 16.5 0 14.596 0 11.7728V5.236C0 2.404 1.824 0.5 4.536 0.5H11.472ZM11.344 6.1C11.072 5.828 10.624 5.828 10.352 6.1L7.048 9.404L5.648 8.004C5.376 7.732 4.928 7.732 4.656 8.004C4.384 8.276 4.384 8.716 4.656 8.996L6.56 10.892C6.696 11.028 6.872 11.092 7.048 11.092C7.232 11.092 7.408 11.028 7.544 10.892L11.344 7.092C11.616 6.82 11.616 6.38 11.344 6.1Z" fill="#28C025"/>
</svg>
