<svg width="23" height="23" viewBox="0 0 23 23" fill="none" xmlns="http://www.w3.org/2000/svg">
<path d="M19.2292 6.77839C19.2278 5.60074 18.7375 4.47171 17.8661 3.63897C16.9945 2.80625 15.813 2.33782 14.5805 2.33645H5.6416C5.79958 1.80032 6.13582 1.32787 6.59954 0.990412C7.06327 0.652958 7.6293 0.468825 8.21219 0.46582H19.4673C20.1808 0.466505 20.8649 0.73763 21.3694 1.2197C21.8739 1.70176 22.1576 2.35538 22.1583 3.03713V17.5303C22.1576 18.212 21.8739 18.8656 21.3694 19.3477C20.8649 19.8299 20.1808 20.1009 19.4673 20.1017H19.2224L19.2292 6.77839Z" fill="#FFCE57"/>
<path d="M3.32528 4.20703H14.5805C15.2945 4.20669 15.9797 4.47736 16.485 4.95954C16.9905 5.44171 17.2747 6.09593 17.2754 6.77835V20.3394C17.2747 21.0212 16.991 21.6748 16.4865 22.1568C15.982 22.6389 15.2979 22.91 14.5845 22.9107H3.32528C2.6118 22.91 1.92774 22.6389 1.42325 22.1568C0.918739 21.6748 0.634993 21.0212 0.634277 20.3394V6.77835C0.634993 6.0966 0.918739 5.44297 1.42325 4.96092C1.92774 4.47885 2.6118 4.20772 3.32528 4.20703ZM5.28298 20.1081H12.624C12.7231 20.1121 12.822 20.097 12.9147 20.0636C13.0075 20.0301 13.0922 19.9791 13.1638 19.9137C13.2354 19.848 13.2923 19.7694 13.3312 19.6823C13.3701 19.5952 13.3902 19.5014 13.3902 19.4067C13.3902 19.312 13.3701 19.2182 13.3312 19.1311C13.2923 19.044 13.2354 18.9654 13.1638 18.8998C13.0922 18.8343 13.0075 18.7833 12.9147 18.7499C12.822 18.7164 12.7231 18.7013 12.624 18.7053H5.28298C5.18395 18.7013 5.08507 18.7164 4.99232 18.7499C4.89956 18.7833 4.81484 18.8343 4.74325 18.8998C4.67167 18.9654 4.61471 19.044 4.57579 19.1311C4.53688 19.2182 4.51681 19.312 4.51681 19.4067C4.51681 19.5014 4.53688 19.5952 4.57579 19.6823C4.61471 19.7694 4.67167 19.848 4.74325 19.9137C4.81484 19.9791 4.89956 20.0301 4.99232 20.0636C5.08507 20.097 5.18395 20.1121 5.28298 20.1081ZM5.28298 16.3668H12.624C12.8133 16.3591 12.992 16.2817 13.123 16.1511C13.254 16.0204 13.3272 15.8464 13.3272 15.6654C13.3272 15.4845 13.254 15.3105 13.123 15.1798C12.992 15.0492 12.8133 14.9719 12.624 14.9642H5.28298C5.09377 14.9719 4.91501 15.0492 4.784 15.1798C4.65299 15.3105 4.57986 15.4845 4.57986 15.6654C4.57986 15.8464 4.65299 16.0204 4.784 16.1511C4.91501 16.2817 5.09377 16.3591 5.28298 16.3668ZM5.28298 13.0935H12.624C12.8133 13.0857 12.992 13.0085 13.123 12.8778C13.254 12.7471 13.3272 12.5731 13.3272 12.3922C13.3272 12.2112 13.254 12.0372 13.123 11.9066C12.992 11.7759 12.8133 11.6986 12.624 11.6909H5.28298C5.18395 11.6868 5.08507 11.7019 4.99232 11.7353C4.89956 11.7687 4.81484 11.8197 4.74325 11.8853C4.67167 11.9508 4.61471 12.0295 4.57579 12.1166C4.53688 12.2037 4.51681 12.2975 4.51681 12.3922C4.51681 12.4869 4.53688 12.5806 4.57579 12.6677C4.61471 12.7549 4.67167 12.8336 4.74325 12.8991C4.81484 12.9646 4.89956 13.0156 4.99232 13.049C5.08507 13.0824 5.18395 13.0976 5.28298 13.0935ZM5.28298 9.35224H12.624C12.7231 9.3563 12.822 9.34117 12.9147 9.30775C13.0075 9.27435 13.0922 9.22334 13.1638 9.15782C13.2354 9.0923 13.2923 9.0136 13.3312 8.92648C13.3701 8.83938 13.3902 8.74564 13.3902 8.65092C13.3902 8.5562 13.3701 8.46245 13.3312 8.37534C13.2923 8.28822 13.2354 8.20953 13.1638 8.14401C13.0922 8.07849 13.0075 8.02748 12.9147 7.99406C12.822 7.96066 12.7231 7.94552 12.624 7.94959H5.28298C5.18395 7.94552 5.08507 7.96066 4.99232 7.99406C4.89956 8.02748 4.81484 8.07849 4.74325 8.14401C4.67167 8.20953 4.61471 8.28822 4.57579 8.37534C4.53688 8.46245 4.51681 8.5562 4.51681 8.65092C4.51681 8.74564 4.53688 8.83938 4.57579 8.92648C4.61471 9.0136 4.67167 9.0923 4.74325 9.15782C4.81484 9.22334 4.89956 9.27435 4.99232 9.30775C5.08507 9.34117 5.18395 9.3563 5.28298 9.35224Z" fill="#FFCE57"/>
</svg>
