<svg width="16" height="16" viewBox="0 0 16 16" fill="none" xmlns="http://www.w3.org/2000/svg">
<path fill-rule="evenodd" clip-rule="evenodd" d="M11.468 0C14.1792 0 16 1.9024 16 4.7328V11.2672C16 14.0976 14.1792 16 11.468 16H4.5328C1.8216 16 0 14.0976 0 11.2672V4.7328C0 1.9024 1.8216 0 4.5328 0H11.468ZM11.468 1.2H4.5328C2.5088 1.2 1.2 2.5864 1.2 4.7328V11.2672C1.2 13.4136 2.5088 14.8 4.5328 14.8H11.468C13.492 14.8 14.8 13.4136 14.8 11.2672V4.7328C14.8 2.5864 13.492 1.2 11.468 1.2ZM8 4.13112C8.3312 4.13112 8.6 4.39992 8.6 4.73112V9.816L10.5736 7.83432C10.808 7.59832 11.1872 7.59992 11.4216 7.83272C11.656 8.06632 11.6576 8.44632 11.4232 8.68152L8.4248 11.6927C8.4052 11.7119 8.38492 11.7297 8.36352 11.746L8.4248 11.6927C8.39331 11.7247 8.35853 11.7526 8.32125 11.7763C8.31216 11.7812 8.3033 11.7866 8.29428 11.7916C8.27721 11.8021 8.25906 11.8112 8.2405 11.8193C8.23528 11.8208 8.23048 11.8228 8.22565 11.8248C8.20706 11.8331 8.18765 11.8398 8.16792 11.8456C8.15568 11.8484 8.14351 11.8516 8.1312 11.8543C8.11618 11.8584 8.10107 11.8612 8.08585 11.8634C8.0736 11.8644 8.06081 11.8658 8.0479 11.8668C8.03178 11.8689 8.01592 11.8695 8 11.8695L7.9528 11.8656L7.91862 11.8632C7.91699 11.863 7.91536 11.8628 7.91374 11.8626L8 11.8695C7.95559 11.8695 7.91162 11.8646 7.86886 11.855C7.85649 11.8516 7.84432 11.8484 7.8323 11.8449C7.81235 11.8398 7.79294 11.8331 7.77392 11.8254C7.76952 11.8228 7.76472 11.8208 7.75994 11.8187C7.74094 11.8112 7.72279 11.8021 7.70512 11.7921C7.6967 11.7866 7.68784 11.7812 7.67912 11.7757C7.66411 11.767 7.64986 11.7571 7.63604 11.7465C7.61281 11.7279 7.59053 11.7082 7.56981 11.6868L4.5768 8.68152C4.3424 8.44632 4.344 8.06632 4.5784 7.83272C4.8136 7.59992 5.1928 7.59832 5.4264 7.83432L7.4 9.816V4.73112C7.4 4.39992 7.6688 4.13112 8 4.13112Z" fill="#D42000"/>
</svg>
