<svg width="30" height="24" viewBox="0 0 30 24" fill="none" xmlns="http://www.w3.org/2000/svg">
<path d="M25.4129 1.94033C23.4709 1.03388 21.3945 0.375109 19.2236 0C18.957 0.480876 18.6455 1.12767 18.4308 1.64218C16.1231 1.29596 13.8367 1.29596 11.5714 1.64218C11.3567 1.12767 11.0382 0.480876 10.7692 0C8.59601 0.375109 6.51719 1.0363 4.57524 1.94513C0.658303 7.85017 -0.403514 13.6085 0.127396 19.2852C2.72531 21.2206 5.24301 22.3964 7.71822 23.1658C8.32936 22.3266 8.87442 21.4346 9.34397 20.4945C8.44969 20.1555 7.59316 19.7372 6.78384 19.2515C6.99855 19.0928 7.20857 18.9269 7.41148 18.7562C12.3477 21.0596 17.7111 21.0596 22.5884 18.7562C22.7937 18.9269 23.0037 19.0928 23.2161 19.2515C22.4044 19.7396 21.5455 20.1579 20.6512 20.497C21.1207 21.4346 21.6635 22.3291 22.2769 23.1681C24.7545 22.3988 27.2746 21.2231 29.8725 19.2852C30.4954 12.7045 28.8083 6.99903 25.4129 1.94033ZM10.0165 15.7941C8.53465 15.7941 7.31944 14.414 7.31944 12.7334C7.31944 11.0527 8.5087 9.67025 10.0165 9.67025C11.5243 9.67025 12.7394 11.0503 12.7135 12.7334C12.7158 14.414 11.5243 15.7941 10.0165 15.7941ZM19.9834 15.7941C18.5016 15.7941 17.2864 14.414 17.2864 12.7334C17.2864 11.0527 18.4756 9.67025 19.9834 9.67025C21.4912 9.67025 22.7064 11.0503 22.6805 12.7334C22.6805 14.414 21.4912 15.7941 19.9834 15.7941Z" fill="#6D7AFF"/>
</svg>
