<svg width="11" height="11" viewBox="0 0 11 11" fill="none" xmlns="http://www.w3.org/2000/svg">
<path d="M10.0722 9.45773C10.4025 9.45773 10.6711 9.72985 10.6711 10.0644C10.6711 10.3996 10.4025 10.6711 10.0722 10.6711H6.68705C6.35678 10.6711 6.08815 10.3996 6.08815 10.0644C6.08815 9.72985 6.35678 9.45773 6.68705 9.45773H10.0722ZM7.72462 0.414433L8.59907 1.10908C8.95765 1.38948 9.19671 1.75911 9.27849 2.14785C9.37286 2.57547 9.2722 2.99545 8.98911 3.3587L3.78018 10.0948C3.54113 10.4007 3.18883 10.5728 2.81138 10.5792L0.735356 10.6047C0.622118 10.6047 0.527754 10.5282 0.50259 10.4198L0.0307675 8.37415C-0.0510151 7.99815 0.0307675 7.6094 0.269824 7.30988L3.96262 2.53023C4.02553 2.45375 4.13877 2.44164 4.21426 2.49836L5.76813 3.7347C5.86879 3.81755 6.00719 3.86216 6.15188 3.84304C6.46014 3.8048 6.66774 3.52439 6.63628 3.22487C6.61741 3.07192 6.54192 2.94446 6.44126 2.84887C6.40981 2.82338 4.93143 1.63802 4.93143 1.63802C4.83707 1.56155 4.81819 1.42135 4.89369 1.32639L5.47875 0.567382C6.01977 -0.127261 6.96341 -0.19099 7.72462 0.414433Z" fill="#565656"/>
</svg>
