<svg width="7" height="13" viewBox="0 0 7 13" fill="none" xmlns="http://www.w3.org/2000/svg">
<path d="M1.33285 12.0153C1.13814 12.0156 0.949443 11.9478 0.799516 11.8236C0.629094 11.6823 0.521893 11.479 0.501569 11.2586C0.481245 11.0381 0.549467 10.8187 0.691183 10.6486L4.42452 6.18192L0.824516 1.70692C0.684707 1.53476 0.619292 1.31397 0.642753 1.09343C0.666214 0.8729 0.776616 0.670814 0.949516 0.53192C1.12382 0.378554 1.35421 0.304857 1.58516 0.328586C1.81612 0.352314 2.0267 0.471316 2.16618 0.65692L6.19118 5.65692C6.44395 5.96442 6.44395 6.40775 6.19118 6.71525L2.02452 11.7153C1.85496 11.9198 1.59805 12.0312 1.33285 12.0153Z" fill="white"/>
</svg>
