<svg width="23" height="21" viewBox="0 0 23 21" fill="none" xmlns="http://www.w3.org/2000/svg">
<path fill-rule="evenodd" clip-rule="evenodd" d="M6.37831 5.46356C6.83371 5.46356 7.20331 5.83316 7.20331 6.28856C7.20331 6.74396 6.83371 7.11356 6.37831 7.11356H5.34321C3.56781 7.11356 2.12461 8.55566 2.12461 10.33V15.7035C2.12461 17.4844 3.57221 18.932 5.35311 18.932H17.6071C19.3803 18.932 20.8246 17.4877 20.8246 15.7145V10.3421C20.8246 8.56116 19.3759 7.11356 17.5972 7.11356H16.572C16.1166 7.11356 15.747 6.74396 15.747 6.28856C15.747 5.83316 16.1166 5.46356 16.572 5.46356H17.5972C20.2867 5.46356 22.4746 7.65256 22.4746 10.3421V15.7145C22.4746 18.3985 20.29 20.582 17.6071 20.582H5.35311C2.66361 20.582 0.474609 18.3941 0.474609 15.7035V10.33C0.474609 7.64596 2.65811 5.46356 5.34321 5.46356H6.37831ZM11.4755 0.257812C11.9309 0.257812 12.3005 0.627412 12.3005 1.08281L12.2996 12.3314L14.099 10.5252C14.4202 10.2018 14.9416 10.2018 15.265 10.523C15.5873 10.8442 15.5884 11.3667 15.2672 11.6901L12.067 14.9028C12.0358 14.935 12.0019 14.9646 11.9658 14.9913L12.0596 14.9098C12.0242 14.9457 11.9857 14.978 11.9449 15.0064C11.9199 15.0236 11.8946 15.0392 11.8684 15.0534C11.8557 15.0603 11.8425 15.0671 11.829 15.0734C11.805 15.0848 11.7804 15.0951 11.7552 15.1042C11.7426 15.1087 11.73 15.1129 11.7172 15.1168C11.6863 15.1264 11.6544 15.1341 11.6219 15.1399C11.6146 15.1412 11.6079 15.1423 11.6012 15.1433C11.575 15.1474 11.5476 15.1503 11.5199 15.1517C11.5049 15.1525 11.4902 15.1529 11.4755 15.1529L11.4317 15.1496L11.3636 15.1454C11.3587 15.1447 11.3539 15.144 11.3491 15.1433L11.4755 15.1529C11.4263 15.1529 11.3776 15.1485 11.3297 15.14C11.2967 15.1341 11.2649 15.1264 11.2339 15.1169C11.2215 15.113 11.2093 15.109 11.1972 15.1047C11.172 15.0957 11.147 15.0853 11.1227 15.0738C11.1079 15.0668 11.0932 15.0593 11.0788 15.0514C11.0585 15.0402 11.0389 15.0283 11.0198 15.0156C11.0068 15.007 10.9938 14.9978 10.981 14.9882C10.9495 14.9646 10.9199 14.9389 10.8922 14.9112L10.8914 14.9098L7.68379 11.6901C7.36259 11.3667 7.36369 10.8442 7.68599 10.523C8.00939 10.2018 8.53079 10.2018 8.85199 10.5252L10.6496 12.3314L10.6505 1.08281C10.6505 0.627412 11.0201 0.257812 11.4755 0.257812Z" fill="#A598B8"/>
</svg>
