<svg width="22" height="23" viewBox="0 0 22 23" fill="none" xmlns="http://www.w3.org/2000/svg">
<path fill-rule="evenodd" clip-rule="evenodd" d="M10.8026 0.773438C16.3595 0.773438 20.8796 5.29348 20.8796 10.8504C20.8796 13.4721 19.8734 15.8633 18.227 17.6579L21.4667 20.8908C21.7699 21.194 21.7709 21.6845 21.4677 21.9877C21.3167 22.1409 21.1169 22.2164 20.9183 22.2164C20.7206 22.2164 20.5219 22.1409 20.3698 21.9898L17.091 18.7201C15.3662 20.1014 13.1792 20.9284 10.8026 20.9284C5.24568 20.9284 0.724609 16.4073 0.724609 10.8504C0.724609 5.29348 5.24568 0.773438 10.8026 0.773438ZM10.8026 2.32565C6.10147 2.32565 2.27682 6.14926 2.27682 10.8504C2.27682 15.5515 6.10147 19.3762 10.8026 19.3762C15.5027 19.3762 19.3273 15.5515 19.3273 10.8504C19.3273 6.14926 15.5027 2.32565 10.8026 2.32565Z" fill="#A598B8"/>
</svg>
