<svg width="21" height="23" viewBox="0 0 21 23" fill="none" xmlns="http://www.w3.org/2000/svg">
<path fill-rule="evenodd" clip-rule="evenodd" d="M18.4974 7.57322C18.9517 7.61062 19.2905 8.00771 19.2542 8.46201C19.2476 8.53681 18.6514 15.9188 18.3083 19.0153C18.0949 20.937 16.8255 22.1062 14.9093 22.1414C13.443 22.1667 12.0284 22.181 10.6457 22.181C9.15526 22.181 7.70218 22.1645 6.2645 22.1348C4.42532 22.0985 3.15264 20.9062 2.94474 19.023C2.59824 15.899 2.00535 8.53571 1.99985 8.46201C1.96245 8.00771 2.30125 7.60952 2.75554 7.57322C3.20324 7.56112 3.60803 7.87572 3.64433 8.32891C3.64784 8.37666 3.89022 11.3836 4.15435 14.3587L4.2074 14.9524C4.34044 16.4312 4.47529 17.8522 4.58482 18.8415C4.70252 19.9118 5.28001 20.464 6.2986 20.4849C9.04856 20.5432 11.8546 20.5465 14.8796 20.4915C15.962 20.4706 16.5472 19.9294 16.6682 18.8338C17.0092 15.7604 17.6032 8.40371 17.6098 8.32891C17.6461 7.87572 18.0476 7.55892 18.4974 7.57322ZM12.9544 0.181641C13.9642 0.181641 14.8519 0.862532 15.1126 1.83822L15.392 3.2253C15.4823 3.68001 15.8813 4.01208 16.3433 4.01937L19.9532 4.01949C20.4086 4.01949 20.7782 4.38909 20.7782 4.84448C20.7782 5.29988 20.4086 5.66947 19.9532 5.66947L16.3756 5.66931C16.37 5.66942 16.3644 5.66947 16.3589 5.66947L16.332 5.66837L4.92034 5.66934C4.91146 5.66943 4.90258 5.66947 4.8937 5.66947L4.87676 5.66837L1.2996 5.66947C0.844205 5.66947 0.474609 5.29988 0.474609 4.84448C0.474609 4.38909 0.844205 4.01949 1.2996 4.01949L4.90866 4.01839L5.01978 4.01136C5.43369 3.95766 5.77768 3.6433 5.86168 3.2253L6.12898 1.88772C6.40068 0.862532 7.28837 0.181641 8.29815 0.181641H12.9544ZM12.9544 1.83162H8.29815C8.03416 1.83162 7.80206 2.00872 7.73496 2.26282L7.47866 3.5498C7.44609 3.71281 7.39866 3.86991 7.33796 4.01979H13.9149C13.8541 3.86991 13.8066 3.71281 13.7739 3.5498L13.5066 2.21222C13.4505 2.00872 13.2184 1.83162 12.9544 1.83162Z" fill="#A598B8"/>
</svg>
