<svg width="16" height="17" viewBox="0 0 16 17" fill="none" xmlns="http://www.w3.org/2000/svg">
<path fill-rule="evenodd" clip-rule="evenodd" d="M11.468 16.5C14.1792 16.5 16 14.5976 16 11.7672V5.2328C16 2.4024 14.1792 0.5 11.468 0.5H4.5328C1.8216 0.5 0 2.4024 0 5.2328V11.7672C0 14.5976 1.8216 16.5 4.5328 16.5H11.468ZM11.468 15.3H4.5328C2.5088 15.3 1.2 13.9136 1.2 11.7672V5.2328C1.2 3.0864 2.5088 1.7 4.5328 1.7H11.468C13.492 1.7 14.8 3.0864 14.8 5.2328V11.7672C14.8 13.9136 13.492 15.3 11.468 15.3ZM8 12.3689C8.3312 12.3689 8.6 12.1001 8.6 11.7689V6.684L10.5736 8.66568C10.808 8.90168 11.1872 8.90008 11.4216 8.66728C11.656 8.43368 11.6576 8.05368 11.4232 7.81848L8.4248 4.80728C8.4052 4.78807 8.38492 4.77034 8.36352 4.75401L8.4248 4.80728C8.39331 4.77534 8.35853 4.74738 8.32125 4.72369C8.31216 4.71876 8.3033 4.71345 8.29428 4.70836C8.27721 4.69789 8.25906 4.68883 8.2405 4.68071C8.23528 4.6792 8.23048 4.67717 8.22565 4.67521C8.20706 4.6669 8.18765 4.66015 8.16792 4.65441C8.15568 4.65157 8.14351 4.64844 8.1312 4.64569C8.11618 4.64161 8.10107 4.63883 8.08585 4.63664C8.0736 4.63562 8.06081 4.63419 8.0479 4.63317C8.03178 4.63111 8.01592 4.63048 8 4.63048L7.9528 4.6344L7.91862 4.63676C7.91699 4.63698 7.91536 4.63721 7.91374 4.63744L8 4.63048C7.95559 4.63048 7.91162 4.6354 7.86886 4.64496C7.85649 4.64844 7.84432 4.65157 7.8323 4.65506C7.81235 4.66015 7.79294 4.6669 7.77392 4.67463C7.76952 4.67717 7.76472 4.6792 7.75994 4.68129C7.74094 4.68883 7.72279 4.69789 7.70512 4.70787C7.6967 4.71345 7.68784 4.71876 7.67912 4.72429C7.66411 4.73299 7.64986 4.74295 7.63604 4.75355C7.61281 4.77207 7.59053 4.79184 7.56981 4.81316L4.5768 7.81848C4.3424 8.05368 4.344 8.43368 4.5784 8.66728C4.8136 8.90008 5.1928 8.90168 5.4264 8.66568L7.4 6.684V11.7689C7.4 12.1001 7.6688 12.3689 8 12.3689Z" fill="#09AB06"/>
</svg>
