<svg width="18" height="18" viewBox="0 0 18 18" fill="none" xmlns="http://www.w3.org/2000/svg">
<circle cx="9" cy="9" r="9" fill="#FFCE57" fill-opacity="0.3"/>
<path d="M8.488 10.896C8.38133 10.896 8.29067 10.864 8.216 10.8C8.14133 10.7253 8.104 10.6293 8.104 10.512V3.184C8.104 3.07733 8.14133 2.98667 8.216 2.912C8.29067 2.83733 8.38133 2.8 8.488 2.8H9.784C9.90133 2.8 9.992 2.83733 10.056 2.912C10.1307 2.98667 10.168 3.07733 10.168 3.184V10.512C10.168 10.6293 10.1307 10.7253 10.056 10.8C9.992 10.864 9.90133 10.896 9.784 10.896H8.488ZM8.392 14C8.27467 14 8.17867 13.9627 8.104 13.888C8.04 13.8133 8.008 13.7227 8.008 13.616V12.128C8.008 12.0107 8.04 11.9147 8.104 11.84C8.17867 11.7653 8.27467 11.728 8.392 11.728H9.88C9.99733 11.728 10.0933 11.7653 10.168 11.84C10.2427 11.9147 10.28 12.0107 10.28 12.128V13.616C10.28 13.7227 10.2427 13.8133 10.168 13.888C10.0933 13.9627 9.99733 14 9.88 14H8.392Z" fill="#FFCE57"/>
</svg>
