<svg width="9" height="9" viewBox="0 0 9 9" fill="none" xmlns="http://www.w3.org/2000/svg">
<circle cx="4.5" cy="4.5" r="4.5" fill="#FFCE57"/>
<path d="M3.872 5.304C3.82933 5.304 3.792 5.29067 3.76 5.264C3.728 5.232 3.712 5.19467 3.712 5.152C3.712 5.12 3.712 5.09067 3.712 5.064C3.712 5.032 3.712 5 3.712 4.968C3.744 4.78133 3.80533 4.61333 3.896 4.464C3.992 4.30933 4.10133 4.168 4.224 4.04C4.352 3.912 4.47467 3.792 4.592 3.68C4.70933 3.568 4.808 3.45867 4.888 3.352C4.97333 3.24 5.01867 3.128 5.024 3.016C5.03467 2.89867 5.01067 2.8 4.952 2.72C4.89867 2.64 4.82133 2.57867 4.72 2.536C4.624 2.49333 4.52 2.472 4.408 2.472C4.19467 2.472 4.02667 2.52267 3.904 2.624C3.78133 2.72533 3.69333 2.87467 3.64 3.072C3.61867 3.13067 3.58933 3.17867 3.552 3.216C3.51467 3.248 3.46133 3.264 3.392 3.264H2.416C2.36267 3.264 2.31733 3.24533 2.28 3.208C2.24267 3.16533 2.224 3.112 2.224 3.048C2.22933 2.83467 2.28 2.62667 2.376 2.424C2.47733 2.22133 2.62133 2.03733 2.808 1.872C3 1.70133 3.23733 1.568 3.52 1.472C3.80267 1.37067 4.128 1.32 4.496 1.32C4.896 1.32 5.22933 1.368 5.496 1.464C5.76267 1.56 5.97067 1.68533 6.12 1.84C6.27467 1.99467 6.384 2.16 6.448 2.336C6.512 2.50667 6.53867 2.66667 6.528 2.816C6.52267 3.008 6.48533 3.18133 6.416 3.336C6.34667 3.49067 6.25867 3.63467 6.152 3.768C6.05067 3.896 5.94133 4.02133 5.824 4.144C5.712 4.26133 5.608 4.38133 5.512 4.504C5.416 4.62133 5.344 4.74667 5.296 4.88C5.28533 4.91733 5.27467 4.95467 5.264 4.992C5.25333 5.024 5.24533 5.05867 5.24 5.096C5.20267 5.16533 5.168 5.21867 5.136 5.256C5.104 5.288 5.056 5.304 4.992 5.304H3.872ZM3.888 7C3.82933 7 3.78133 6.98133 3.744 6.944C3.70667 6.90667 3.688 6.85867 3.688 6.8V5.888C3.688 5.83467 3.70667 5.78933 3.744 5.752C3.78133 5.70933 3.82933 5.688 3.888 5.688H4.912C4.97067 5.688 5.01867 5.70933 5.056 5.752C5.09867 5.78933 5.12 5.83467 5.12 5.888V6.8C5.12 6.85867 5.09867 6.90667 5.056 6.944C5.01867 6.98133 4.97067 7 4.912 7H3.888Z" fill="#544175"/>
</svg>
