<svg width="20" height="104" viewBox="0 0 100% 100%" fill="none" xmlns="http://www.w3.org/2000/svg">
<path d="M19.7071 96.7071C20.0976 96.3166 20.0976 95.6834 19.7071 95.2929L13.3431 88.9289C12.9526 88.5384 12.3195 88.5384 11.9289 88.9289C11.5384 89.3195 11.5384 89.9526 11.9289 90.3431L17.5858 96L11.9289 101.657C11.5384 102.047 11.5384 102.681 11.9289 103.071C12.3195 103.462 12.9526 103.462 13.3431 103.071L19.7071 96.7071ZM2 97L19 97L19 95L2 95L2 97Z" fill="#FFCE57"/>
<line x1="1" y1="97" x2="0.999996" y2="4.37115e-08" stroke="#FFCE57" stroke-width="2"/>
<line x1="1" y1="1" x2="20" y2="1" stroke="#FFCE57" stroke-width="2"/>
</svg>
