<svg width="28" height="28" viewBox="0 0 28 28" fill="none" xmlns="http://www.w3.org/2000/svg">
<path fill-rule="evenodd" clip-rule="evenodd" d="M20.0676 0C24.8122 0 28 3.3292 28 8.2824V19.7176C28 24.6708 24.8122 28 20.0662 28H7.931C3.1864 28 0 24.6708 0 19.7176V8.2824C0 3.3292 3.1864 0 7.931 0H20.0676ZM20.0676 2.1H7.931C4.389 2.1 2.1 4.5262 2.1 8.2824V19.7176C2.1 23.4738 4.389 25.9 7.931 25.9H20.0662C23.6096 25.9 25.9 23.4738 25.9 19.7176V8.2824C25.9 4.5262 23.6096 2.1 20.0676 2.1ZM11.3827 9.88764L13.9972 12.502L16.6103 9.89058C17.0205 9.48038 17.6841 9.48038 18.0943 9.89058C18.5045 10.3008 18.5045 10.9644 18.0943 11.3746L15.4812 13.986L18.0971 16.6034C18.5073 17.0136 18.5073 17.6772 18.0971 18.0874C17.8927 18.2932 17.6225 18.3954 17.3551 18.3954C17.0863 18.3954 16.8175 18.2932 16.6131 18.0874L13.9972 15.47L11.3855 18.0834C11.1811 18.2892 10.9123 18.3914 10.6435 18.3914C10.3747 18.3914 10.1059 18.2892 9.9015 18.0834C9.4913 17.6732 9.4913 17.0096 9.9015 16.5994L12.5132 13.986L9.8987 11.3716C9.4885 10.9614 9.4885 10.2978 9.8987 9.88764C10.3103 9.47744 10.9739 9.47744 11.3827 9.88764Z" fill="#FFCE57"/>
</svg>
