<svg width="20" height="20" viewBox="0 0 20 20" fill="none" xmlns="http://www.w3.org/2000/svg">
<path d="M14.9102 0C18.1509 0 19.9999 1.84723 19.9999 5.12799V14.114C19.9999 17.3755 18.1604 19.242 14.9198 19.242H6.01755C2.76738 19.242 0.937378 17.3755 0.937378 14.114V5.12799C0.937378 1.84723 2.76738 0 6.01755 0H14.9102ZM10.4591 5.30116C10.0207 5.30116 9.66803 5.65714 9.66803 6.09971V8.81282H6.97068C6.76099 8.81282 6.56083 8.89941 6.40833 9.04373C6.26536 9.19766 6.17958 9.39874 6.17958 9.61137C6.17958 10.0539 6.53224 10.4099 6.97068 10.4195H9.66803V13.1423C9.66803 13.5848 10.0207 13.9408 10.4591 13.9408C10.8976 13.9408 11.2502 13.5848 11.2502 13.1423V10.4195H13.9571C14.3955 10.4099 14.7482 10.0539 14.7482 9.61137C14.7482 9.1688 14.3955 8.81282 13.9571 8.81282H11.2502V6.09971C11.2502 5.65714 10.8976 5.30116 10.4591 5.30116Z" fill="white"/>
</svg>
