<svg width="31" height="25" viewBox="0 0 31 25" fill="none" xmlns="http://www.w3.org/2000/svg">
<path d="M30.237 2.9506C29.1523 3.43489 27.9867 3.76221 26.7632 3.90942C28.012 3.15578 28.971 1.96247 29.4226 0.540628C28.254 1.23836 26.9596 1.74512 25.582 2.01827C24.4786 0.834831 22.9068 0.0953064 21.1673 0.0953064C17.827 0.0953064 15.119 2.82163 15.119 6.18434C15.119 6.66158 15.1725 7.12633 15.2756 7.57198C10.249 7.31805 5.79248 4.89386 2.80946 1.20991C2.28886 2.10924 1.9906 3.15524 1.9906 4.27115C1.9906 6.38366 3.05844 8.24745 4.68129 9.33937C3.68979 9.30778 2.75727 9.03388 1.94175 8.57781C1.94132 8.60321 1.94132 8.62872 1.94132 8.65434C1.94132 11.6046 4.02611 14.0657 6.79293 14.625C6.28538 14.7642 5.75108 14.8386 5.19942 14.8386C4.80972 14.8386 4.4308 14.8005 4.06159 14.7294C4.83118 17.1486 7.06477 18.909 9.71137 18.9582C7.64145 20.5913 5.03357 21.5648 2.2 21.5648C1.71186 21.5648 1.23039 21.536 0.757233 21.4798C3.4338 23.2074 6.61297 24.2154 10.0285 24.2154C21.1531 24.2154 27.2365 14.9369 27.2365 6.89043C27.2365 6.6264 27.2307 6.36379 27.219 6.1027C28.4006 5.24419 29.4261 4.1717 30.237 2.9506Z" fill="#55ACEE"/>
</svg>
