<svg width="20" height="28" viewBox="0 0 20 28" fill="none" xmlns="http://www.w3.org/2000/svg">
<path d="M6.83407 16.5211C7.81616 16.248 8.94908 16.0927 10.2596 16.0927C11.2015 16.0927 12.0478 16.1957 12.8087 16.3789C19.8844 18.0846 19.5258 26.875 19.5258 27.0549H13.3752H6.27432H0.639898C0.639898 27.0549 -0.45615 18.5442 6.83407 16.5211Z" fill="#750F9D"/>
<path d="M4.73755 2.55948C3.95657 2.73283 3.3214 3.3314 2.96945 4.033C2.61584 4.73624 2.51361 5.53432 2.5069 6.31606C2.49685 7.44124 2.67449 8.56641 3.03314 9.63598" stroke="#78433C" stroke-width="0.5" stroke-miterlimit="10"/>
<path d="M4.68219 2.43682C4.68219 2.43682 1.79291 4.12295 3.07331 9.08648L17.4761 8.86569C17.4761 8.86569 18.7883 5.53433 16.1806 3.17604C16.0382 0.590424 11.8936 0.0932537 8.9323 0.00494058C6.68155 -0.0637474 5.34585 0.636216 4.68219 2.43682Z" fill="#78433C"/>
<path d="M12.5724 16.32C12.5724 16.32 12.5322 18.7404 9.92947 18.7666C7.32678 18.7927 7.13069 16.4443 7.13069 16.4443C7.13069 16.4443 9.82556 15.7443 12.5724 16.32Z" fill="#AB56B9"/>
<path d="M16.3851 22.7145H16.5527V27.0549H16.3851V22.7145Z" fill="#AB56B9"/>
<path d="M3.55762 22.7145H3.72522V27.0549H3.55762V22.7145Z" fill="#AB56B9"/>
<path d="M12.0394 14.1481L11.9389 15.3109C10.6752 15.6298 9.37305 15.6674 8.16807 15.4123L8.14628 13.7491L12.0394 14.1481Z" fill="#D78665"/>
<path d="M11.9406 15.3109L11.7897 17.0772C11.7897 17.0772 11.5752 18.0225 10.0954 18.0225C8.43622 18.0225 8.19321 17.0772 8.19321 17.0772L8.17142 15.4123C9.37473 15.6674 10.6769 15.6282 11.9406 15.3109Z" fill="#DE9D7F"/>
<path d="M4.20797 4.56941C4.20797 4.56941 3.55436 6.57444 3.88116 9.46588C4.18283 12.1333 6.32129 14.7974 9.67815 15.01C12.8356 15.2095 15.5338 13.9502 16.5175 9.63106C17.5013 5.31189 15.941 2.16696 11.887 1.37378C7.8933 0.592042 4.96548 2.02958 4.20797 4.56941Z" fill="#DE9D7F"/>
<path d="M17.0035 8.86569C17.0035 8.86569 16.6147 9.39721 16.1119 8.86569C15.5505 8.27203 14.85 6.51558 14.4746 4.53998C14.4746 4.53998 6.34973 8.71196 4.85314 5.11565C4.85314 5.11565 5.34586 8.05125 4.72912 8.84116L3.63475 9.08648C3.63475 9.08648 1.384 0.914236 9.96635 0.574066C18.5487 0.233897 17.0035 8.86569 17.0035 8.86569Z" fill="#78433C"/>
<path d="M14.2785 4.45493C14.3573 5.58337 14.4696 6.74126 14.9824 7.75686C15.4936 8.77246 16.4941 9.62943 17.6538 9.66704" stroke="#78433C" stroke-width="0.5" stroke-miterlimit="10"/>
<path d="M15.817 3.33958C16.3399 3.32486 16.841 3.60288 17.1778 3.99538C17.5147 4.38789 17.7007 4.88179 17.818 5.37896C18.2051 7.04546 17.808 8.8706 16.7588 10.2411" stroke="#78433C" stroke-width="0.5" stroke-miterlimit="10"/>
<path d="M4.29842 9.47896C5.08778 8.9867 5.40285 7.97437 5.29559 7.0667C5.18833 6.15904 4.73416 5.32824 4.26323 4.53833" stroke="#78433C" stroke-width="0.5" stroke-miterlimit="10"/>
<path d="M5.02576 11.3614L4.88163 8.8657C4.88163 8.8657 1.92028 8.0022 1.79794 10.3719C1.6756 12.74 4.22635 12.8611 5.02576 11.3614Z" fill="#DE9D7F"/>
<path d="M4.19617 11.4988C4.18947 11.4988 4.18276 11.4971 4.17606 11.4938C4.15092 11.4824 4.14087 11.4546 4.1526 11.4317C4.15763 11.4203 4.67716 10.2804 3.86267 9.75048C3.57608 9.56404 3.29453 9.49862 3.02303 9.55586C2.55546 9.65563 2.2739 10.0906 2.27055 10.0956C2.25547 10.1185 2.22698 10.125 2.20351 10.1103C2.18005 10.0972 2.17335 10.0678 2.18843 10.0449C2.20016 10.0252 2.49345 9.57058 3.00125 9.46265C3.29956 9.39886 3.60625 9.46919 3.91629 9.67034C4.7995 10.2444 4.24645 11.4579 4.24142 11.4693C4.23137 11.4873 4.21461 11.4988 4.19617 11.4988Z" fill="#683937"/>
<path d="M2.99616 10.5698C2.98108 10.5698 2.96599 10.5633 2.95761 10.5502C2.94085 10.5289 2.94588 10.4995 2.96767 10.4831C2.97605 10.4766 3.79222 9.89601 4.39889 10.488C4.41733 10.506 4.41733 10.5371 4.39889 10.5551C4.38046 10.5731 4.34862 10.5731 4.33018 10.5551C3.78384 10.0203 3.03471 10.5535 3.02633 10.56C3.01627 10.5665 3.00622 10.5698 2.99616 10.5698Z" fill="#683937"/>
<path d="M15.1633 11.3614L15.9007 8.84117C15.9007 8.84117 18.2671 8.00056 18.3911 10.3703C18.5135 12.74 15.9611 12.8611 15.1633 11.3614Z" fill="#DE9D7F"/>
<path d="M15.9929 11.4988C15.9996 11.4988 16.0063 11.4971 16.013 11.4938C16.0381 11.4824 16.0482 11.4546 16.0364 11.4317C16.0314 11.4203 15.5119 10.2804 16.3264 9.75048C16.613 9.56404 16.8945 9.49862 17.166 9.55586C17.6336 9.65563 17.9151 10.0906 17.9185 10.0956C17.9336 10.1185 17.9621 10.125 17.9855 10.1103C18.009 10.0972 18.0157 10.0678 18.0006 10.0449C17.9889 10.0252 17.6956 9.57058 17.1878 9.46265C16.8895 9.39886 16.5828 9.46919 16.2727 9.67034C15.3895 10.2444 15.9426 11.4579 15.9476 11.4693C15.956 11.4873 15.9744 11.4988 15.9929 11.4988Z" fill="#683937"/>
<path d="M17.1912 10.5698C17.2063 10.5698 17.2214 10.5633 17.2298 10.5502C17.2465 10.5289 17.2415 10.4995 17.2197 10.4831C17.2113 10.4766 16.3952 9.89601 15.7885 10.488C15.77 10.506 15.77 10.5371 15.7885 10.5551C15.8069 10.5731 15.8388 10.5731 15.8572 10.5551C16.4035 10.0203 17.1527 10.5535 17.1611 10.56C17.1711 10.5665 17.1812 10.5698 17.1912 10.5698Z" fill="#683937"/>
<path d="M9.7117 11.7833C10.424 11.9943 10.6854 11.4415 10.6871 11.435C10.6988 11.4104 10.6871 11.3826 10.6619 11.3728C10.6385 11.3614 10.6083 11.3728 10.5983 11.3973C10.5882 11.4202 10.3368 11.9403 9.61282 11.6492C9.58768 11.641 9.55919 11.6508 9.54914 11.6754C9.53908 11.6999 9.55081 11.7277 9.57595 11.7375C9.62288 11.7539 9.66813 11.7702 9.7117 11.7833Z" fill="#683937"/>
<path d="M11.6976 11.6705C11.7898 12.1218 12.5658 12.3524 13.4322 12.184C14.2986 12.0172 14.9254 11.5151 14.8349 11.0637C14.7428 10.6123 13.9668 10.3817 13.1004 10.5502C12.2322 10.7186 11.6055 11.2191 11.6976 11.6705Z" fill="#D78665"/>
<path d="M14.1646 7.74052C14.1646 7.74052 14.6489 7.32022 13.625 6.79524C12.601 6.27027 12.2423 6.38639 12.0764 6.64806C11.9256 6.88683 12.1602 7.24662 12.7401 7.52955C13.4372 7.87136 13.9015 7.98257 14.1646 7.74052Z" fill="#78433C"/>
<path d="M12.3127 9.45118C12.3127 9.77499 12.5323 10.0367 12.8038 10.0367C13.0753 10.0367 13.2948 9.77499 13.2948 9.45118C13.2948 9.12736 13.0753 8.86569 12.8038 8.86569C12.5323 8.86569 12.3127 9.12736 12.3127 9.45118Z" fill="#040504"/>
<path d="M7.06369 9.45118C7.06369 9.77499 7.28324 10.0367 7.55474 10.0367C7.82623 10.0367 8.04578 9.77499 8.04578 9.45118C8.04578 9.12736 7.82623 8.86569 7.55474 8.86569C7.28324 8.86569 7.06369 9.12736 7.06369 9.45118Z" fill="#040504"/>
<path d="M8.49156 11.6705C8.39938 12.1218 7.62343 12.3524 6.75699 12.184C5.89054 12.0172 5.26375 11.5151 5.35425 11.0637C5.44642 10.6123 6.22237 10.3817 7.08882 10.5502C7.95526 10.7186 8.58206 11.2191 8.49156 11.6705Z" fill="#D78665"/>
<path d="M6.26934 7.65221C6.26934 7.65221 5.785 7.2319 6.80898 6.70693C7.83297 6.18195 8.19161 6.29807 8.35753 6.55974C8.50836 6.79851 8.27373 7.15831 7.69387 7.44124C6.99669 7.78304 6.53078 7.89425 6.26934 7.65221Z" fill="#78433C"/>
<path d="M9.65475 10.6221C9.67318 10.6221 9.69162 10.6123 9.69832 10.5943C9.71005 10.5698 9.69832 10.542 9.67486 10.5322C9.67151 10.5306 9.28102 10.3539 9.1084 10.0138C8.97265 9.74719 9.01455 9.34651 9.19722 9.17152C9.30616 9.06685 9.45364 9.05867 9.62626 9.14699C9.63128 9.15026 9.63966 9.15517 9.65139 9.16171C10.2497 9.50188 10.5212 9.34815 10.6419 9.16007C10.8648 8.815 10.667 7.3611 10.6435 7.052C10.6419 7.02584 10.6184 7.00621 10.5916 7.00785C10.5648 7.00948 10.5447 7.03238 10.5463 7.05855C10.6067 7.88934 10.7324 8.83953 10.5597 9.10937C10.4173 9.33179 10.1274 9.32034 9.7 9.0783C9.68659 9.07012 9.67653 9.06522 9.67151 9.06195C9.46202 8.95564 9.26929 8.97036 9.13019 9.10283C8.91902 9.30562 8.86874 9.75046 9.02293 10.0547C9.21063 10.4259 9.61788 10.6091 9.63631 10.6172C9.64134 10.6221 9.64804 10.6221 9.65475 10.6221Z" fill="#683937"/>
<path d="M4.41905 4.50891C4.82462 5.46727 5.72123 6.18196 6.7251 6.52213C7.72898 6.86066 8.83173 6.85248 9.87414 6.64969C10.6317 6.5025 11.3674 6.25555 12.0579 5.91538C12.807 5.54741 13.4958 5.07477 14.1829 4.60377C14.7427 4.21944 15.3024 3.83511 15.8622 3.45242" stroke="#78433C" stroke-width="0.5" stroke-miterlimit="10"/>
<path d="M10.2965 10.7219C10.6786 10.6565 11.5065 10.681 12.626 11.6574C12.626 11.6574 10.3115 11.9583 10.0752 11.0375C10.04 10.8936 10.1473 10.7481 10.2965 10.7219Z" fill="#78433C"/>
<path d="M9.89099 10.7219C9.50888 10.6565 8.68098 10.681 7.56146 11.6574C7.56146 11.6574 9.8759 11.9583 10.1122 11.0375C10.1491 10.8936 10.0418 10.7481 9.89099 10.7219Z" fill="#78433C"/>
<path d="M8.1932 11.955C8.5485 13.0393 10.1222 13.2797 10.1222 13.2797C10.1222 13.2797 11.6473 13.1685 12.0428 11.955C12.0428 11.955 12.9427 13.3484 12.5053 14.1563C12.0679 14.9642 10.2127 15.7721 10.1222 15.795C10.1205 15.795 10.1188 15.7934 10.1188 15.7917C10.1172 15.7934 10.1155 15.795 10.1155 15.795C10.0267 15.7721 8.16974 14.9642 7.73233 14.1563C7.29491 13.3484 8.1932 11.955 8.1932 11.955Z" fill="#683937"/>
</svg>
