<svg width="11" height="12" viewBox="0 0 11 12" fill="none" xmlns="http://www.w3.org/2000/svg">
<path d="M5.76527 0C5.91745 0 6.03451 0.11897 6.03451 0.260602V2.08481C6.03451 3.12156 6.91832 3.97134 7.98943 3.97701C8.43427 3.97701 8.78545 3.98267 9.05469 3.98267L9.15441 3.98226C9.33434 3.98094 9.57659 3.97701 9.78632 3.97701C9.93265 3.97701 10.0497 4.09031 10.0497 4.23195V8.78681C10.0497 10.1918 8.87325 11.3305 7.42169 11.3305H2.76265C1.24085 11.3305 0 10.1351 0 8.66218V2.55503C0 1.15005 1.18232 0 2.63973 0H5.76527ZM6.39155 7.30818H3.20748C2.9675 7.30818 2.7685 7.49513 2.7685 7.72741C2.7685 7.95968 2.9675 8.1523 3.20748 8.1523H6.39155C6.63152 8.1523 6.83053 7.95968 6.83053 7.72741C6.83053 7.49513 6.63152 7.30818 6.39155 7.30818ZM5.18581 4.47555H3.20748C2.9675 4.47555 2.7685 4.66817 2.7685 4.90045C2.7685 5.13272 2.9675 5.31968 3.20748 5.31968H5.18581C5.42579 5.31968 5.62479 5.13272 5.62479 4.90045C5.62479 4.66817 5.42579 4.47555 5.18581 4.47555ZM6.88742 0.513272C6.88742 0.2691 7.19353 0.147863 7.36854 0.324053C8.00126 0.960827 9.1069 2.07405 9.72498 2.6961C9.89589 2.86775 9.77064 3.15271 9.52422 3.15328C9.0431 3.15498 8.47594 3.15328 8.06798 3.14932C7.42063 3.14932 6.88742 2.63321 6.88742 2.00663V0.513272Z" fill="#565656"/>
</svg>
