<svg width="659" height="208" viewBox="0 0 659 208" fill="none" xmlns="http://www.w3.org/2000/svg">
<g filter="url(#filter0_di_763_266)">
<path d="M94.7734 20.6719H118.68V144H94.7734V95.9062H43.9375V144H20.0312V20.6719H43.9375V74.25H94.7734V20.6719ZM157.456 144H134.253V54.0703H157.456V144ZM159.073 33.5391C159.073 37.1953 157.784 40.3125 155.206 42.8906C152.628 45.4688 149.51 46.7578 145.854 46.7578C142.198 46.7578 139.081 45.4688 136.503 42.8906C133.924 40.3125 132.635 37.1953 132.635 33.5391C132.635 29.8828 133.924 26.7656 136.503 24.1875C139.081 21.6094 142.198 20.3203 145.854 20.3203C149.51 20.3203 152.628 21.6094 155.206 24.1875C157.784 26.7656 159.073 29.8828 159.073 33.5391ZM230.966 135.141C226.185 141.234 219.575 145.266 211.138 147.234C208.325 147.844 205.489 148.148 202.63 148.148C198.224 148.148 194.146 147.68 190.396 146.742C186.693 145.852 183.364 144.773 180.411 143.508C177.505 142.195 175.044 140.906 173.028 139.641C171.06 138.375 169.583 137.367 168.599 136.617L179.849 120.445C183.88 123.117 187.466 125.133 190.607 126.492C193.747 127.805 196.982 128.461 200.31 128.461C202.091 128.461 203.943 128.25 205.864 127.828C207.833 127.406 209.497 126.562 210.857 125.297C212.263 124.031 212.966 122.133 212.966 119.602C212.966 117.398 212.31 115.57 210.997 114.117C209.732 112.664 208.161 111.516 206.286 110.672C204.458 109.828 202.607 109.242 200.732 108.914C196.841 108.164 193.068 107.156 189.411 105.891C185.755 104.625 182.45 102.609 179.497 99.8438C174.81 95.2031 172.232 89.1562 171.763 81.7031C171.575 78.7969 172.044 75.4219 173.169 71.5781C174.341 67.7344 176.45 64.0781 179.497 60.6094C185.544 54.0937 194.286 50.8359 205.724 50.8359C210.083 50.8359 214.489 51.7266 218.943 53.5078C223.396 55.2422 227.403 57.6562 230.966 60.75L219.013 76.5C217.091 74.9531 215.333 73.7344 213.739 72.8438C212.146 71.9062 210.364 71.2031 208.396 70.7344C206.474 70.2188 204.528 70.2188 202.56 70.7344C200.872 71.1562 199.349 72 197.989 73.2656C196.63 74.5312 195.95 76.0078 195.95 77.6953C195.95 79.3359 196.56 80.7422 197.778 81.9141C198.997 83.0391 200.638 84.0469 202.7 84.9375C204.763 85.7812 207.06 86.6484 209.591 87.5391C212.591 88.5703 215.661 89.7891 218.802 91.1953C221.989 92.5547 224.943 94.3125 227.661 96.4688C230.38 98.625 232.583 101.367 234.271 104.695C236.005 107.977 236.872 112.102 236.872 117.07C236.872 123.82 234.903 129.844 230.966 135.141ZM274.453 30.1641V54.2109H289.429V72.9141H274.453V117.914C274.453 119.414 274.687 120.703 275.156 121.781C275.672 122.812 276.304 123.633 277.054 124.242C278.086 125.039 279.281 125.508 280.64 125.648C282.047 125.789 283.406 125.742 284.718 125.508C286.078 125.273 287.648 124.852 289.429 124.242V146.742C285.726 147.539 282.445 147.984 279.586 148.078C276.726 148.219 273.679 147.961 270.445 147.305C267.211 146.695 264.14 145.43 261.234 143.508C258.375 141.586 256.008 138.75 254.133 135C252.304 131.25 251.39 126.258 251.39 120.023V72.9141H241.617V54.2109H251.39V32.9766L274.453 30.1641ZM343.885 51.0469C352.51 51.0469 360.385 53.25 367.51 57.6562C374.682 62.0156 380.377 67.875 384.596 75.2344C388.815 82.5469 390.924 90.6562 390.924 99.5625C390.924 108.516 388.815 116.672 384.596 124.031C380.377 131.344 374.682 137.203 367.51 141.609C360.385 145.969 352.51 148.148 343.885 148.148C335.213 148.148 327.291 145.969 320.119 141.609C312.994 137.203 307.323 131.344 303.104 124.031C298.885 116.672 296.776 108.516 296.776 99.5625C296.776 90.6562 298.885 82.5469 303.104 75.2344C307.323 67.875 312.994 62.0156 320.119 57.6562C327.291 53.25 335.213 51.0469 343.885 51.0469ZM368.776 99.9141C368.776 92.5078 366.338 86.2031 361.463 81C356.588 75.75 350.729 73.125 343.885 73.125C336.994 73.125 331.112 75.75 326.237 81C321.362 86.2031 318.924 92.5078 318.924 99.9141C318.924 107.273 321.362 113.555 326.237 118.758C331.112 123.961 336.994 126.562 343.885 126.562C350.729 126.562 356.588 123.961 361.463 118.758C366.338 113.555 368.776 107.273 368.776 99.9141ZM425.059 54.0703V60.4688C431.575 54.1875 440.809 51.0469 452.763 51.0469C465.747 51.0469 476.458 55.7812 484.895 65.25C493.38 74.6719 497.622 86.0859 497.622 99.4922C497.622 112.852 493.38 124.266 484.895 133.734C476.458 143.156 465.747 147.867 452.763 147.867C440.809 147.867 431.575 144.727 425.059 138.445V187.664H402.278V54.0703H425.059ZM474.841 99.9141C474.841 92.5078 472.403 86.2031 467.528 81C462.7 75.75 456.841 73.125 449.95 73.125C443.059 73.125 437.177 75.75 432.302 81C427.427 86.2031 424.989 92.5078 424.989 99.9141C424.989 107.273 427.427 113.555 432.302 118.758C437.177 123.961 443.059 126.562 449.95 126.562C456.841 126.562 462.7 123.961 467.528 118.758C472.403 113.555 474.841 107.273 474.841 99.9141ZM532.249 144H509.046V54.0703H532.249V144ZM533.867 33.5391C533.867 37.1953 532.578 40.3125 529.999 42.8906C527.421 45.4688 524.304 46.7578 520.648 46.7578C516.992 46.7578 513.874 45.4688 511.296 42.8906C508.718 40.3125 507.429 37.1953 507.429 33.5391C507.429 29.8828 508.718 26.7656 511.296 24.1875C513.874 21.6094 516.992 20.3203 520.648 20.3203C524.304 20.3203 527.421 21.6094 529.999 24.1875C532.578 26.7656 533.867 29.8828 533.867 33.5391ZM616.166 144.422V138.656C609.65 144.938 600.416 148.078 588.463 148.078C575.478 148.078 564.744 143.367 556.26 133.945C547.822 124.477 543.603 113.039 543.603 99.6328C543.603 86.2734 547.822 74.8828 556.26 65.4609C564.744 55.9922 575.478 51.2578 588.463 51.2578C600.416 51.2578 609.65 54.3984 616.166 60.6797V54.0703H638.947V144.422H616.166ZM616.096 99.9141C616.096 92.5078 613.658 86.2031 608.783 81C603.955 75.75 598.096 73.125 591.205 73.125C584.314 73.125 578.432 75.75 573.557 81C568.682 86.2031 566.244 92.5078 566.244 99.9141C566.244 107.273 568.682 113.555 573.557 118.758C578.432 123.961 584.314 126.562 591.205 126.562C598.096 126.562 603.955 123.961 608.783 118.758C613.658 113.555 616.096 107.273 616.096 99.9141Z" fill="white"/>
</g>
<defs>
<filter id="filter0_di_763_266" x="0.03125" y="0.320312" width="658.916" height="207.344" filterUnits="userSpaceOnUse" color-interpolation-filters="sRGB">
<feFlood flood-opacity="0" result="BackgroundImageFix"/>
<feColorMatrix in="SourceAlpha" type="matrix" values="0 0 0 0 0 0 0 0 0 0 0 0 0 0 0 0 0 0 127 0" result="hardAlpha"/>
<feOffset/>
<feGaussianBlur stdDeviation="10"/>
<feComposite in2="hardAlpha" operator="out"/>
<feColorMatrix type="matrix" values="0 0 0 0 0 0 0 0 0 0 0 0 0 0 0 0 0 0 1 0"/>
<feBlend mode="normal" in2="BackgroundImageFix" result="effect1_dropShadow_763_266"/>
<feBlend mode="normal" in="SourceGraphic" in2="effect1_dropShadow_763_266" result="shape"/>
<feColorMatrix in="SourceAlpha" type="matrix" values="0 0 0 0 0 0 0 0 0 0 0 0 0 0 0 0 0 0 127 0" result="hardAlpha"/>
<feOffset dx="-7" dy="4"/>
<feGaussianBlur stdDeviation="5.5"/>
<feComposite in2="hardAlpha" operator="arithmetic" k2="-1" k3="1"/>
<feColorMatrix type="matrix" values="0 0 0 0 0.172549 0 0 0 0 0.670588 0 0 0 0 0.87451 0 0 0 1 0"/>
<feBlend mode="normal" in2="shape" result="effect2_innerShadow_763_266"/>
</filter>
</defs>
</svg>
