<svg width="52" height="43" viewBox="0 0 52 43" fill="none" xmlns="http://www.w3.org/2000/svg">
<path d="M2.5 37.1667H20.3333C22.8391 37.1667 24.0919 37.1667 24.9284 37.8686C25.0621 37.9808 25.1859 38.1046 25.2981 38.2383C26 39.0748 26 40.3277 26 42.8334V6.33337C26 3.50495 26 2.09073 25.1213 1.21205C24.2426 0.333374 22.8284 0.333374 20 0.333374H2.5C1.55719 0.333374 1.08579 0.333374 0.792894 0.626267C0.5 0.91916 0.5 1.39056 0.5 2.33337V35.1667C0.5 36.1095 0.5 36.5809 0.792894 36.8738C1.08579 37.1667 1.55719 37.1667 2.5 37.1667Z" fill="#00B607"/>
<path d="M49.5 37.1667H31.6667C29.1609 37.1667 27.9081 37.1667 27.0716 37.8686C26.9379 37.9808 26.8141 38.1046 26.7019 38.2383C26 39.0748 26 40.3277 26 42.8334V6.33337C26 3.50495 26 2.09073 26.8787 1.21205C27.7574 0.333374 29.1716 0.333374 32 0.333374H49.5C50.4428 0.333374 50.9142 0.333374 51.2071 0.626267C51.5 0.91916 51.5 1.39056 51.5 2.33337V35.1667C51.5 36.1095 51.5 36.5809 51.2071 36.8738C50.9142 37.1667 50.4428 37.1667 49.5 37.1667Z" fill="#00B607"/>
</svg>
