<svg width="49" height="48" viewBox="0 0 49 48" fill="none" xmlns="http://www.w3.org/2000/svg">
<circle cx="24.8059" cy="24" r="24" fill="#F8D5A8"/>
<path d="M36.3546 11.8519L26.1262 19.4401L28.0259 14.9633L36.3546 11.8519Z" fill="#DC9349" stroke="#DC9349" stroke-linecap="round" stroke-linejoin="round"/>
<path d="M12.7666 11.8519L22.9018 19.512L21.0952 14.9633L12.7666 11.8519Z" fill="#DC9349" stroke="#DC9349" stroke-linecap="round" stroke-linejoin="round"/>
<path d="M32.6775 29.4426L29.9568 33.612L35.779 35.2132L37.4429 29.5347L32.6775 29.4426Z" fill="#DA873A" stroke="#DA873A" stroke-linecap="round" stroke-linejoin="round"/>
<path d="M11.688 29.5347L13.3418 35.2132L19.164 33.612L16.4532 29.4426L11.688 29.5347Z" fill="#DE9349" stroke="#DE9349" stroke-linecap="round" stroke-linejoin="round"/>
<path d="M18.8454 22.3975L17.2229 24.8524L22.9945 25.1093L22.799 18.8956L18.8454 22.3975Z" fill="#DA873A" stroke="#DA873A" stroke-linecap="round" stroke-linejoin="round"/>
<path d="M30.2755 22.3979L26.2596 18.8243L26.126 25.1097L31.8975 24.8527L30.2755 22.3979Z" fill="#DA873A" stroke="#DA873A" stroke-linecap="round" stroke-linejoin="round"/>
<path d="M19.1641 33.6123L22.6456 31.917L19.6466 29.5765L19.1641 33.6123Z" fill="#CC8041" stroke="#CC8041" stroke-linecap="round" stroke-linejoin="round"/>
<path d="M26.4749 31.917L29.9564 33.6123L29.4739 29.5765L26.4749 31.917Z" fill="#CC8041" stroke="#CC8041" stroke-linecap="round" stroke-linejoin="round"/>
<path d="M29.9564 33.6123L26.4749 31.9169L26.7518 34.1867L26.7215 35.1416L29.9564 33.6123Z" fill="#DCCFC4" stroke="#DCCFC4" stroke-linecap="round" stroke-linejoin="round"/>
<path d="M19.1641 33.6123L22.3988 35.1416L22.3786 34.1867L22.6456 31.9169L19.1641 33.6123Z" fill="#DCCFC4" stroke="#DCCFC4" stroke-linecap="round" stroke-linejoin="round"/>
<path d="M22.4603 28.0764L19.5645 27.2246L21.6075 26.2901L22.4603 28.0764Z" fill="#393939" stroke="#393939" stroke-linecap="round" stroke-linejoin="round"/>
<path d="M26.6599 28.0764L27.5126 26.2901L29.5654 27.2248L26.6599 28.0764Z" fill="#393939" stroke="#393939" stroke-linecap="round" stroke-linejoin="round"/>
<path d="M19.1642 33.612L19.6669 29.4426L16.4534 29.5347L19.1642 33.612Z" fill="#CC8041" stroke="#CC8041" stroke-linecap="round" stroke-linejoin="round"/>
<path d="M29.4539 29.4426L29.9566 33.612L32.6774 29.5347L29.4539 29.4426Z" fill="#CC8041" stroke="#CC8041" stroke-linecap="round" stroke-linejoin="round"/>
<path d="M31.8975 24.8523L26.126 25.1092L26.66 28.076L27.5127 26.2898L29.5655 27.2244L31.8975 24.8523Z" fill="#CC8041" stroke="#CC8041" stroke-linecap="round" stroke-linejoin="round"/>
<path d="M19.5645 27.2243L21.6077 26.2896L22.4604 28.0758L22.9945 25.1091L17.2229 24.8523L19.5645 27.2243Z" fill="#CC8041" stroke="#CC8041" stroke-linecap="round" stroke-linejoin="round"/>
<path d="M17.2229 24.8523L19.6465 29.576L19.565 27.2243L17.2229 24.8523Z" fill="#DD924C" stroke="#DD924C" stroke-linecap="round" stroke-linejoin="round"/>
<path d="M29.5667 27.2243L29.4746 29.576L31.8982 24.8523L29.5667 27.2243Z" fill="#DD914C" stroke="#DD914C" stroke-linecap="round" stroke-linejoin="round"/>
<path d="M22.9945 25.1097L22.4604 28.0765L23.1382 31.5782L23.2819 26.9676L22.9945 25.1097Z" fill="#DD924C" stroke="#DD924C" stroke-linecap="round" stroke-linejoin="round"/>
<path d="M26.1261 25.1097L25.8491 26.9577L25.9827 31.5782L26.6605 28.0765L26.1261 25.1097Z" fill="#DD924C" stroke="#DD924C" stroke-linecap="round" stroke-linejoin="round"/>
<path d="M26.6604 28.0766L25.9827 31.5784L26.4753 31.9173L29.4745 29.5766L29.5666 27.2249L26.6604 28.0766Z" fill="#EBA14C" stroke="#EBA14C" stroke-linecap="round" stroke-linejoin="round"/>
<path d="M19.5645 27.2249L19.6459 29.5766L22.6451 31.9173L23.1377 31.5784L22.46 28.0766L19.5645 27.2249Z" fill="#EBA14C" stroke="#EBA14C" stroke-linecap="round" stroke-linejoin="round"/>
<path d="M26.722 35.1418L26.7523 34.1869L26.4964 33.9613H22.6245L22.3786 34.1869L22.3988 35.1418L19.1641 33.6125L20.2939 34.5359L22.594 36.1279H26.5267L28.8268 34.5359L29.9566 33.6125L26.722 35.1418Z" fill="#CABEB3" stroke="#C0AC9D" stroke-linecap="round" stroke-linejoin="round"/>
<path d="M26.475 31.9167L25.9823 31.5778H23.1381L22.6454 31.9167L22.3784 34.1865L22.6243 33.9608H26.4964L26.7523 34.1865L26.475 31.9167Z" fill="#393939" stroke="#161616" stroke-linecap="round" stroke-linejoin="round"/>
<path d="M36.785 19.9338L37.6485 15.7441L36.3542 11.8519L26.4749 19.1842L30.2751 22.3977L35.6452 23.9696L36.8267 22.5828L36.3129 22.2136L37.1341 21.4631L36.508 20.9704L37.3293 20.3443L36.785 19.9338Z" fill="#875C38" stroke="#875C38" stroke-linecap="round" stroke-linejoin="round"/>
<path d="M11.4727 15.7441L12.3456 19.9338L11.7917 20.3445L12.6129 20.9706L11.9868 21.4632L12.8081 22.2138L12.2943 22.583L13.4757 23.9697L18.8459 22.3979L22.6461 19.1843L12.7662 11.8519L11.4727 15.7441Z" fill="#875C38" stroke="#875C38" stroke-linecap="round" stroke-linejoin="round"/>
<path d="M35.6453 23.9695L30.2752 22.3977L31.8977 24.8526L29.4741 29.5764L32.6776 29.5348H37.4428L35.6453 23.9695Z" fill="#EBA14C" stroke="#EBA14C" stroke-linecap="round" stroke-linejoin="round"/>
<path d="M18.8455 22.3977L13.4754 23.9695L11.688 29.5348H16.4532L19.6464 29.5764L17.2228 24.8527L18.8455 22.3977Z" fill="#EBA14C" stroke="#EBA14C" stroke-linecap="round" stroke-linejoin="round"/>
<path d="M26.1267 25.1099L26.4757 19.1846L28.0263 14.9635H21.0955L22.6461 19.1846L22.9951 25.1099L23.1287 26.9781L23.1388 31.5785H25.983L25.9931 26.9781L26.1267 25.1099Z" fill="#EBA04C" stroke="#EBA04C" stroke-linecap="round" stroke-linejoin="round"/>
</svg>

