<svg width="40" height="40" viewBox="0 0 40 40" fill="none" xmlns="http://www.w3.org/2000/svg">
<path fill-rule="evenodd" clip-rule="evenodd" d="M20 0C8.9543 0 0 8.9543 0 20C0 31.0457 8.9543 40 20 40C31.0457 40 40 31.0457 40 20C40 14.6957 37.8929 9.60859 34.1421 5.85786C30.3914 2.10714 25.3043 0 20 0ZM20 6.00049C23.3137 6.00049 26 8.68678 26 12.0005C26 15.3142 23.3137 18.0005 20 18.0005C16.6863 18.0005 14 15.3142 14 12.0005C14 8.68678 16.6863 6.00049 20 6.00049ZM20.0016 33.9746C24.4318 33.9746 28.6006 31.8778 31.2417 28.321C31.651 27.7228 31.7045 26.9499 31.3817 26.301L30.9217 25.361C29.9153 23.3071 27.8288 22.004 25.5417 22.001H14.4616C12.1418 22.0035 10.0313 23.343 9.04157 25.441L8.62156 26.321C8.30658 26.9646 8.35999 27.7275 8.76157 28.321C11.4027 31.8778 15.5715 33.9746 20.0016 33.9746Z" fill="#BD8AD2"/>
</svg>
