<svg width="33" height="29" viewBox="0 0 33 29" fill="none" xmlns="http://www.w3.org/2000/svg">
<path d="M2.49811 4.8717L7.43298 13.5077C7.70983 13.9922 7.84825 14.2344 7.84825 14.5C7.84825 14.7656 7.70983 15.0078 7.43298 15.4923L2.49811 24.1283C1.25981 26.2953 0.640655 27.3789 1.12348 27.9162C1.6063 28.4535 2.74961 27.9533 5.03623 26.9529L29.3119 16.3323C31.1074 15.5468 32.0051 15.154 32.0051 14.5C32.0051 13.846 31.1074 13.4532 29.3119 12.6677L5.03624 2.0471C2.74962 1.04671 1.6063 0.546508 1.12348 1.08383C0.640655 1.62115 1.25981 2.70466 2.49811 4.8717Z" fill="white"/>
</svg>
