<svg width="27" height="21" viewBox="0 0 27 21" fill="none" xmlns="http://www.w3.org/2000/svg">
<path fill-rule="evenodd" clip-rule="evenodd" d="M1.36046 1.15207C0.583313 2.00952 0.583313 3.33276 0.583313 5.97925V6.948C0.583313 7.48302 1.01704 7.91675 1.55206 7.91675H1.87498C3.30172 7.91675 4.45831 9.07334 4.45831 10.5001C4.45831 11.9268 3.30172 13.0834 1.87498 13.0834H1.55206C1.01704 13.0834 0.583313 13.5171 0.583313 14.0522V15.0209C0.583313 17.6674 0.583313 18.9906 1.36046 19.8481C1.4264 19.9208 1.49588 19.9903 1.56864 20.0563C2.42609 20.8334 3.74933 20.8334 6.39582 20.8334H20.6041C23.2506 20.8334 24.5739 20.8334 25.4313 20.0563C25.5041 19.9903 25.5736 19.9208 25.6395 19.8481C26.4166 18.9906 26.4166 17.6674 26.4166 15.0209V14.0522C26.4166 13.5171 25.9829 13.0834 25.4479 13.0834H25.125C23.6982 13.0834 22.5416 11.9268 22.5416 10.5001C22.5416 9.07334 23.6982 7.91675 25.125 7.91675H25.4479C25.9829 7.91675 26.4166 7.48302 26.4166 6.948V5.97925C26.4166 3.33276 26.4166 2.00952 25.6395 1.15207C25.5736 1.07931 25.5041 1.00984 25.4313 0.943895C24.5739 0.166748 23.2506 0.166748 20.6041 0.166748H6.39581C3.74933 0.166748 2.42609 0.166748 1.56864 0.943895C1.49588 1.00984 1.4264 1.07931 1.36046 1.15207ZM13.4296 7.92443C13.2532 7.96336 13.1446 8.24428 12.9275 8.80612C12.804 9.12563 12.7422 9.28539 12.6267 9.39404C12.5943 9.42452 12.5591 9.45167 12.5216 9.47509C12.3881 9.55862 12.2214 9.57412 11.888 9.60511C11.3235 9.65756 11.0413 9.68379 10.9551 9.85078C10.9373 9.88536 10.9252 9.92281 10.9192 9.96156C10.8907 10.1486 11.0981 10.3445 11.5131 10.7363L11.5131 10.7363L11.6283 10.8451L11.6283 10.8451C11.8223 11.0282 11.9193 11.1198 11.9754 11.2341C12.009 11.3027 12.0316 11.3765 12.0422 11.4526C12.0598 11.5796 12.0314 11.7124 11.9746 11.9781L11.9543 12.0731L11.9543 12.0731C11.8524 12.5496 11.8015 12.7878 11.8651 12.9049C11.9222 13.0101 12.0274 13.0775 12.1436 13.0832C12.273 13.0896 12.4553 12.9355 12.8199 12.6272C13.0601 12.424 13.1802 12.3225 13.3135 12.2828C13.4354 12.2465 13.5646 12.2465 13.6864 12.2828C13.8198 12.3225 13.9399 12.424 14.1801 12.6272C14.5447 12.9355 14.727 13.0896 14.8564 13.0832C14.9726 13.0775 15.0778 13.0101 15.1349 12.9049C15.1985 12.7878 15.1475 12.5496 15.0457 12.0731L15.0457 12.0731L15.0254 11.9781C14.9686 11.7124 14.9402 11.5796 14.9578 11.4526C14.9684 11.3765 14.9909 11.3027 15.0246 11.2341C15.0807 11.1198 15.1777 11.0282 15.3716 10.8451L15.3717 10.8451L15.4869 10.7363L15.4869 10.7363C15.9018 10.3445 16.1093 10.1486 16.0807 9.96156C16.0748 9.92281 16.0627 9.88536 16.0448 9.85078C15.9586 9.68379 15.6764 9.65756 15.112 9.60511C14.7786 9.57412 14.6119 9.55862 14.4783 9.47509C14.4409 9.45167 14.4057 9.42452 14.3733 9.39404C14.2577 9.28539 14.196 9.12563 14.0725 8.80612C13.8553 8.24428 13.7467 7.96336 13.5703 7.92443C13.5239 7.91419 13.476 7.91419 13.4296 7.92443Z" fill="#6BA1F1"/>
</svg>
