<svg width="20" height="20" viewBox="0 0 20 20" fill="none" xmlns="http://www.w3.org/2000/svg">
<circle cx="10" cy="10" r="10" fill="white"/>
<path d="M12.625 6.5H10.875C10.5529 6.5 10.2917 6.76117 10.2917 7.08333V8.83333H12.625C12.6914 8.83186 12.7543 8.86273 12.7938 8.91609C12.8332 8.96946 12.8442 9.03867 12.8234 9.10167L12.3917 10.385C12.3519 10.5028 12.2419 10.5824 12.1175 10.5833H10.2917V14.9583C10.2917 15.1194 10.1611 15.25 10 15.25H8.54171C8.38062 15.25 8.25004 15.1194 8.25004 14.9583V10.5833H7.37504C7.21396 10.5833 7.08337 10.4527 7.08337 10.2917V9.125C7.08337 8.96392 7.21396 8.83333 7.37504 8.83333H8.25004V7.08333C8.25004 5.79467 9.29471 4.75 10.5834 4.75H12.625C12.7861 4.75 12.9167 4.88058 12.9167 5.04167V6.20833C12.9167 6.36942 12.7861 6.5 12.625 6.5Z" fill="#5044FF"/>
</svg>
