<svg width="20" height="20" viewBox="0 0 20 20" fill="none" xmlns="http://www.w3.org/2000/svg">
<circle cx="10" cy="10" r="10" fill="white"/>
<path fill-rule="evenodd" clip-rule="evenodd" d="M12.6667 4H7.33333C5.49238 4 4 5.49238 4 7.33333V12.6667C4 14.5076 5.49238 16 7.33333 16H12.6667C14.5076 16 16 14.5076 16 12.6667V7.33333C16 5.49238 14.5076 4 12.6667 4ZM14.8333 12.6667C14.8297 13.8618 13.8618 14.8297 12.6667 14.8333H7.33333C6.13824 14.8297 5.17033 13.8618 5.16667 12.6667V7.33333C5.17033 6.13824 6.13824 5.17033 7.33333 5.16667H12.6667C13.8618 5.17033 14.8297 6.13824 14.8333 7.33333V12.6667ZM13.1667 7.5C13.5349 7.5 13.8333 7.20152 13.8333 6.83333C13.8333 6.46514 13.5349 6.16667 13.1667 6.16667C12.7985 6.16667 12.5 6.46514 12.5 6.83333C12.5 7.20152 12.7985 7.5 13.1667 7.5ZM10 7C8.34315 7 7 8.34315 7 10C7 11.6569 8.34315 13 10 13C11.6569 13 13 11.6569 13 10C13.0018 9.20381 12.6863 8.43971 12.1233 7.87672C11.5603 7.31373 10.7962 6.99822 10 7ZM8.16667 10C8.16667 11.0125 8.98748 11.8333 10 11.8333C11.0125 11.8333 11.8333 11.0125 11.8333 10C11.8333 8.98748 11.0125 8.16667 10 8.16667C8.98748 8.16667 8.16667 8.98748 8.16667 10Z" fill="#5044FF"/>
</svg>
