<svg width="20" height="20" viewBox="0 0 20 20" fill="none" xmlns="http://www.w3.org/2000/svg">
<circle cx="10" cy="10" r="10" fill="white"/>
<path fill-rule="evenodd" clip-rule="evenodd" d="M13.6477 4.75C13.9517 4.75899 14.2401 4.88703 14.4513 5.10675C14.7497 5.39279 14.8853 5.81017 14.8123 6.21795L13.2809 14.1718C13.2138 14.5418 12.9792 14.8595 12.6462 15.0315L12.454 15.1309C12.0537 15.3277 11.5767 15.2777 11.2254 15.0023L9.432 13.5811L8.50617 14.4584C8.31956 14.6377 8.07151 14.7382 7.81325 14.7391C7.74364 14.7477 7.67324 14.7477 7.60363 14.7391C7.23351 14.6551 6.93867 14.3747 6.83502 14.008L6.07805 11.4406L3.56842 10.5984C3.31842 10.5169 3.1538 10.2772 3.16664 10.0136V9.63342C3.14798 9.38047 3.29378 9.14427 3.52766 9.04858L13.1935 4.84357C13.3372 4.78212 13.4916 4.7503 13.6477 4.75ZM12.2502 14.2712C12.3415 14.2218 12.4057 14.1337 12.4249 14.0314L13.933 6.07759C13.9551 5.96157 13.9205 5.84195 13.8399 5.75593C13.7842 5.69111 13.7038 5.65289 13.6186 5.65065C13.5841 5.64245 13.5483 5.64245 13.5138 5.65065L4.04006 9.77963L6.66616 10.6803C6.74536 10.7182 6.83734 10.7182 6.91654 10.6803L11.3186 7.89059C11.4038 7.85125 11.5047 7.87539 11.5631 7.94908C11.6047 7.98817 11.6261 8.04418 11.6214 8.10114C11.6194 8.15919 11.5942 8.21398 11.5515 8.25319C10.8877 8.81464 9.77554 9.79717 7.91806 11.5517C7.85874 11.6079 7.82505 11.6862 7.8249 11.7681V13.8326C7.85433 13.831 7.88266 13.8208 7.90642 13.8033L9.19908 12.581C9.30709 12.4849 9.46956 12.4849 9.57757 12.581L11.7669 14.3355C11.8141 14.376 11.8738 14.3987 11.9358 14.3999C11.9783 14.4 12.0202 14.39 12.0581 14.3706L12.2502 14.2712Z" fill="#5044FF"/>
</svg>
