<svg width="20" height="20" viewBox="0 0 20 20" fill="none" xmlns="http://www.w3.org/2000/svg">
<circle cx="10" cy="10" r="10" fill="white"/>
<path d="M15.8159 6.77021C15.5148 7.17175 15.151 7.52202 14.7383 7.80748C14.7383 7.91237 14.7383 8.01726 14.7383 8.12798C14.7416 10.0328 13.9808 11.8593 12.6263 13.198C11.2718 14.5366 9.43707 15.2755 7.53333 15.249C6.43273 15.2527 5.34623 15.0014 4.35894 14.5147C4.3057 14.4915 4.27136 14.4388 4.27157 14.3807V14.3166C4.27157 14.2329 4.33937 14.1651 4.42301 14.1651C5.50486 14.1294 6.54812 13.7543 7.40519 13.0929C6.42596 13.0732 5.5449 12.4931 5.13943 11.6011C5.11895 11.5524 5.12532 11.4965 5.15626 11.4536C5.18719 11.4108 5.2382 11.3872 5.29087 11.3913C5.58848 11.4212 5.88906 11.3935 6.1762 11.3097C5.09521 11.0853 4.28297 10.1879 4.16672 9.08949C4.16259 9.0368 4.18621 8.98576 4.22903 8.95482C4.27186 8.92387 4.32771 8.91749 4.37641 8.93798C4.6665 9.06598 4.97965 9.1334 5.29669 9.13611C4.34949 8.51442 3.94036 7.33193 4.30069 6.25741C4.33788 6.153 4.42724 6.07586 4.53593 6.05436C4.64462 6.03285 4.7566 6.07013 4.83073 6.15252C6.10892 7.5129 7.86517 8.32354 9.72919 8.41352C9.68144 8.223 9.65796 8.0272 9.65929 7.83079C9.67673 6.80088 10.314 5.88342 11.2727 5.50793C12.2314 5.13243 13.3219 5.37322 14.0335 6.11755C14.5187 6.02514 14.9877 5.86219 15.4256 5.63388C15.4577 5.61386 15.4984 5.61386 15.5305 5.63388C15.5505 5.66598 15.5505 5.70668 15.5305 5.73878C15.3183 6.22455 14.96 6.63197 14.5053 6.90424C14.9034 6.85808 15.2946 6.76416 15.6703 6.62453C15.7019 6.603 15.7435 6.603 15.7751 6.62453C15.8016 6.63666 15.8214 6.65984 15.8293 6.68791C15.8371 6.71598 15.8322 6.74609 15.8159 6.77021Z" fill="#5044FF"/>
</svg>
