<svg width="43" height="43" viewBox="0 0 43 43" fill="none" xmlns="http://www.w3.org/2000/svg">
<circle cx="21.5" cy="21.5" r="21.5" fill="#EE95FD"/>
<mask id="mask0_0_1" style="mask-type:alpha" maskUnits="userSpaceOnUse" x="0" y="0" width="43" height="43">
<circle cx="21.5" cy="21.5" r="21.5" fill="#EE95FD"/>
</mask>
<g mask="url(#mask0_0_1)">
<path d="M17.5509 28.5941C18.894 28.2206 20.4434 28.0081 22.2357 28.0081C23.5238 28.0081 24.6812 28.149 25.7218 28.3995C35.3984 30.7323 34.908 42.754 34.908 43H26.4965H16.7854H9.07985C9.07985 43 7.5809 31.3608 17.5509 28.5941Z" fill="#750F9D"/>
<path d="M14.6836 9.50029C13.6155 9.73737 12.7469 10.556 12.2656 11.5155C11.782 12.4772 11.6422 13.5687 11.633 14.6377C11.6192 16.1765 11.8622 17.7153 12.3527 19.178" stroke="#78433C" stroke-width="0.5" stroke-miterlimit="10"/>
<path d="M14.6083 9.33256C14.6083 9.33256 10.6569 11.6385 12.408 18.4266L32.1051 18.1246C32.1051 18.1246 33.8997 13.5687 30.3334 10.3435C30.1386 6.80744 24.4706 6.12752 20.4207 6.00674C17.3426 5.91281 15.5159 6.87007 14.6083 9.33256Z" fill="#78433C"/>
<path d="M25.3984 28.319C25.3984 28.319 25.3434 31.6292 21.784 31.665C18.2246 31.7007 17.9564 28.489 17.9564 28.489C17.9564 28.489 21.6419 27.5317 25.3984 28.319Z" fill="#AB56B9"/>
<path d="M30.6126 37.0641H30.8418V43H30.6126V37.0641Z" fill="#AB56B9"/>
<path d="M13.0696 37.0641H13.2988V43H13.0696V37.0641Z" fill="#AB56B9"/>
<path d="M24.6699 25.3488L24.5324 26.939C22.8043 27.3752 21.0234 27.4266 19.3755 27.0777L19.3457 24.8031L24.6699 25.3488Z" fill="#D78665"/>
<path d="M24.5352 26.939L24.3289 29.3546C24.3289 29.3546 24.0355 30.6473 22.0117 30.6473C19.7427 30.6473 19.4103 29.3546 19.4103 29.3546L19.3805 27.0777C21.0262 27.4266 22.807 27.3729 24.5352 26.939Z" fill="#DE9D7F"/>
<path d="M13.9604 12.2491C13.9604 12.2491 13.0665 14.9911 13.5135 18.9454C13.926 22.5933 16.8506 26.2367 21.4414 26.5275C25.7594 26.8004 29.4495 25.0782 30.7949 19.1713C32.1402 13.2645 30.0064 8.96352 24.4622 7.87877C19.0004 6.80967 14.9964 8.77564 13.9604 12.2491Z" fill="#DE9D7F"/>
<path d="M31.4593 18.1246C31.4593 18.1246 30.9276 18.8515 30.24 18.1246C29.4722 17.3127 28.5141 14.9106 28.0007 12.2088C28.0007 12.2088 16.8893 17.9144 14.8426 12.9961C14.8426 12.9961 15.5164 17.0108 14.673 18.0911L13.1763 18.4265C13.1763 18.4265 10.0982 7.25028 21.8354 6.78507C33.5725 6.31985 31.4593 18.1246 31.4593 18.1246Z" fill="#78433C"/>
<path d="M27.7316 12.0925C27.8394 13.6358 27.9929 15.2193 28.6943 16.6082C29.3933 17.9971 30.7616 19.1691 32.3477 19.2205" stroke="#78433C" stroke-width="0.5" stroke-miterlimit="10"/>
<path d="M29.8361 10.5672C30.5512 10.547 31.2365 10.9272 31.6971 11.464C32.1578 12.0008 32.4122 12.6763 32.5727 13.3562C33.1021 15.6353 32.5589 18.1313 31.1242 20.0056" stroke="#78433C" stroke-width="0.5" stroke-miterlimit="10"/>
<path d="M14.0831 18.9633C15.1626 18.2901 15.5935 16.9057 15.4468 15.6643C15.3001 14.423 14.679 13.2868 14.035 12.2066" stroke="#78433C" stroke-width="0.5" stroke-miterlimit="10"/>
<path d="M15.0762 21.5377L14.8791 18.1246C14.8791 18.1246 10.8292 16.9437 10.6618 20.1845C10.4945 23.4231 13.9829 23.5886 15.0762 21.5377Z" fill="#DE9D7F"/>
<path d="M13.9421 21.7255C13.933 21.7255 13.9238 21.7233 13.9146 21.7188C13.8803 21.7032 13.8665 21.6651 13.8826 21.6338C13.8894 21.6182 14.5999 20.0593 13.486 19.3346C13.0941 19.0796 12.7091 18.9902 12.3378 19.0685C11.6983 19.2049 11.3133 19.7998 11.3087 19.8065C11.2881 19.8378 11.2491 19.8468 11.217 19.8267C11.1849 19.8088 11.1758 19.7685 11.1964 19.7372C11.2124 19.7104 11.6135 19.0886 12.308 18.941C12.716 18.8537 13.1354 18.9499 13.5594 19.225C14.7673 20.0101 14.0109 21.6696 14.004 21.6853C13.9903 21.7099 13.9674 21.7255 13.9421 21.7255Z" fill="#683937"/>
<path d="M12.301 20.4551C12.2804 20.4551 12.2598 20.4462 12.2483 20.4283C12.2254 20.3992 12.2323 20.359 12.262 20.3366C12.2735 20.3277 13.3897 19.5337 14.2194 20.3433C14.2446 20.3679 14.2446 20.4104 14.2194 20.435C14.1942 20.4596 14.1506 20.4596 14.1254 20.435C13.3782 19.7036 12.3537 20.4328 12.3423 20.4417C12.3285 20.4507 12.3148 20.4551 12.301 20.4551Z" fill="#683937"/>
<path d="M28.9412 21.5377L29.9497 18.0911C29.9497 18.0911 33.1859 16.9414 33.3555 20.1823C33.5228 23.4231 30.0322 23.5886 28.9412 21.5377Z" fill="#DE9D7F"/>
<path d="M30.0752 21.7255C30.0844 21.7255 30.0936 21.7233 30.1028 21.7188C30.1371 21.7032 30.1509 21.6651 30.1348 21.6338C30.128 21.6182 29.4175 20.0593 30.5313 19.3346C30.9233 19.0796 31.3083 18.9902 31.6796 19.0685C32.3191 19.2049 32.7041 19.7998 32.7087 19.8065C32.7293 19.8378 32.7683 19.8468 32.8004 19.8267C32.8325 19.8088 32.8416 19.7685 32.821 19.7372C32.805 19.7104 32.4039 19.0886 31.7094 18.941C31.3014 18.8537 30.882 18.9499 30.458 19.225C29.2501 20.0101 30.0065 21.6696 30.0134 21.6853C30.0248 21.7099 30.05 21.7255 30.0752 21.7255Z" fill="#683937"/>
<path d="M31.7149 20.4551C31.7355 20.4551 31.7561 20.4462 31.7676 20.4283C31.7905 20.3992 31.7837 20.359 31.7539 20.3366C31.7424 20.3277 30.6262 19.5337 29.7965 20.3433C29.7713 20.3679 29.7713 20.4104 29.7965 20.435C29.8217 20.4596 29.8653 20.4596 29.8905 20.435C30.6377 19.7036 31.6622 20.4328 31.6736 20.4417C31.6874 20.4507 31.7011 20.4551 31.7149 20.4551Z" fill="#683937"/>
<path d="M21.486 22.1147C22.4601 22.4032 22.8176 21.6472 22.8199 21.6383C22.836 21.6048 22.8199 21.5667 22.7855 21.5533C22.7535 21.5377 22.7122 21.5533 22.6984 21.5869C22.6847 21.6182 22.3409 22.3294 21.3508 21.9313C21.3164 21.9201 21.2774 21.9335 21.2637 21.9671C21.2499 22.0006 21.266 22.0387 21.3004 22.0521C21.3645 22.0744 21.4264 22.0968 21.486 22.1147Z" fill="#683937"/>
<path d="M24.2015 21.9604C24.3275 22.5777 25.3887 22.893 26.5737 22.6627C27.7586 22.4345 28.6158 21.7479 28.492 21.1306C28.366 20.5133 27.3048 20.1979 26.1198 20.4283C24.9326 20.6587 24.0754 21.3431 24.2015 21.9604Z" fill="#D78665"/>
<path d="M27.5759 16.5858C27.5759 16.5858 28.2383 16.011 26.8379 15.2931C25.4375 14.5751 24.947 14.7339 24.7201 15.0918C24.5138 15.4183 24.8347 15.9104 25.6277 16.2973C26.5812 16.7648 27.2161 16.9169 27.5759 16.5858Z" fill="#78433C"/>
<path d="M25.0417 18.9253C25.0417 19.3682 25.3419 19.726 25.7132 19.726C26.0845 19.726 26.3848 19.3682 26.3848 18.9253C26.3848 18.4825 26.0845 18.1246 25.7132 18.1246C25.3419 18.1246 25.0417 18.4825 25.0417 18.9253Z" fill="#040504"/>
<path d="M17.8639 18.9253C17.8639 19.3682 18.1642 19.726 18.5355 19.726C18.9068 19.726 19.207 19.3682 19.207 18.9253C19.207 18.4825 18.9068 18.1246 18.5355 18.1246C18.1642 18.1246 17.8639 18.4825 17.8639 18.9253Z" fill="#040504"/>
<path d="M19.8162 21.9604C19.6902 22.5777 18.629 22.893 17.4441 22.6627C16.2591 22.4345 15.4019 21.7479 15.5257 21.1306C15.6518 20.5133 16.7129 20.1979 17.8979 20.4283C19.0828 20.6587 19.94 21.3431 19.8162 21.9604Z" fill="#D78665"/>
<path d="M16.7786 16.4651C16.7786 16.4651 16.1162 15.8903 17.5166 15.1723C18.917 14.4544 19.4075 14.6132 19.6344 14.971C19.8406 15.2976 19.5198 15.7896 18.7267 16.1765C17.7733 16.644 17.1361 16.7961 16.7786 16.4651Z" fill="#78433C"/>
<path d="M21.4069 20.5267C21.4321 20.5267 21.4573 20.5133 21.4665 20.4887C21.4825 20.4551 21.4665 20.4171 21.4344 20.4037C21.4298 20.4015 20.8958 20.1599 20.6597 19.6947C20.474 19.3301 20.5313 18.7822 20.7812 18.5429C20.9301 18.3997 21.1318 18.3885 21.3679 18.5093C21.3748 18.5138 21.3862 18.5205 21.4023 18.5294C22.2205 18.9946 22.5918 18.7844 22.7568 18.5272C23.0617 18.0553 22.7912 16.0669 22.7591 15.6442C22.7568 15.6084 22.7248 15.5816 22.6881 15.5838C22.6514 15.5861 22.6239 15.6174 22.6262 15.6532C22.7087 16.7894 22.8806 18.0888 22.6445 18.4579C22.4497 18.762 22.0532 18.7464 21.4688 18.4154C21.4504 18.4042 21.4367 18.3975 21.4298 18.393C21.1433 18.2476 20.8797 18.2678 20.6895 18.4489C20.4007 18.7263 20.3319 19.3346 20.5428 19.7506C20.7995 20.2583 21.3565 20.5088 21.3817 20.52C21.3885 20.5267 21.3977 20.5267 21.4069 20.5267Z" fill="#683937"/>
<path d="M14.2489 12.1663C14.8036 13.477 16.0298 14.4544 17.4027 14.9196C18.7756 15.3825 20.2837 15.3714 21.7093 15.094C22.7452 14.8927 23.7514 14.555 24.6957 14.0898C25.7202 13.5866 26.6622 12.9402 27.6019 12.296C28.3674 11.7704 29.1329 11.2448 29.8984 10.7215" stroke="#78433C" stroke-width="0.5" stroke-miterlimit="10"/>
<path d="M22.2868 20.6631C22.8094 20.5737 23.9416 20.6072 25.4727 21.9425C25.4727 21.9425 22.3075 22.354 21.9843 21.0948C21.9362 20.898 22.0828 20.6989 22.2868 20.6631Z" fill="#78433C"/>
<path d="M21.7324 20.6631C21.2098 20.5737 20.0776 20.6072 18.5466 21.9425C18.5466 21.9425 21.7118 22.354 22.0349 21.0948C22.0854 20.898 21.9387 20.6989 21.7324 20.6631Z" fill="#78433C"/>
<path d="M19.4095 22.3495C19.8954 23.8324 22.0475 24.1612 22.0475 24.1612C22.0475 24.1612 24.1332 24.0091 24.6741 22.3495C24.6741 22.3495 25.9049 24.2551 25.3067 25.36C24.7085 26.4649 22.1713 27.5697 22.0475 27.6011C22.0452 27.6011 22.043 27.5988 22.043 27.5966C22.0407 27.5988 22.0384 27.6011 22.0384 27.6011C21.9169 27.5697 19.3774 26.4649 18.7792 25.36C18.181 24.2551 19.4095 22.3495 19.4095 22.3495Z" fill="#683937"/>
</g>
</svg>
