<svg width="225" height="17" viewBox="0 0 225 17" fill="none" xmlns="http://www.w3.org/2000/svg">
<path d="M7.43031 16.12C6.04365 16.12 4.79031 15.8133 3.67031 15.2C2.56365 14.5867 1.69031 13.74 1.05031 12.66C0.423646 11.5667 0.110313 10.3467 0.110313 9C0.110313 7.65333 0.423646 6.44 1.05031 5.36C1.69031 4.26667 2.57031 3.41333 3.69031 2.8C4.81031 2.18667 6.06365 1.88 7.45031 1.88C8.49031 1.88 9.45031 2.05333 10.3303 2.4C11.2103 2.74667 11.957 3.25333 12.5703 3.92L11.6303 4.86C10.537 3.75333 9.15698 3.2 7.49031 3.2C6.38365 3.2 5.37698 3.45333 4.47031 3.96C3.56365 4.46667 2.85031 5.16 2.33031 6.04C1.82365 6.92 1.57031 7.90667 1.57031 9C1.57031 10.0933 1.82365 11.08 2.33031 11.96C2.85031 12.84 3.56365 13.5333 4.47031 14.04C5.37698 14.5467 6.38365 14.8 7.49031 14.8C9.17031 14.8 10.5503 14.24 11.6303 13.12L12.5703 14.06C11.957 14.7267 11.2036 15.24 10.3103 15.6C9.43031 15.9467 8.47031 16.12 7.43031 16.12ZM19.2566 16.1C18.2432 16.1 17.3299 15.8733 16.5166 15.42C15.7032 14.9533 15.0632 14.3133 14.5966 13.5C14.1299 12.6867 13.8966 11.7667 13.8966 10.74C13.8966 9.71333 14.1299 8.79333 14.5966 7.98C15.0632 7.16667 15.7032 6.53333 16.5166 6.08C17.3299 5.62667 18.2432 5.4 19.2566 5.4C20.2699 5.4 21.1832 5.62667 21.9966 6.08C22.8099 6.53333 23.4432 7.16667 23.8966 7.98C24.3632 8.79333 24.5966 9.71333 24.5966 10.74C24.5966 11.7667 24.3632 12.6867 23.8966 13.5C23.4432 14.3133 22.8099 14.9533 21.9966 15.42C21.1832 15.8733 20.2699 16.1 19.2566 16.1ZM19.2566 14.84C20.0032 14.84 20.6699 14.6733 21.2566 14.34C21.8566 13.9933 22.3232 13.5067 22.6566 12.88C22.9899 12.2533 23.1566 11.54 23.1566 10.74C23.1566 9.94 22.9899 9.22667 22.6566 8.6C22.3232 7.97333 21.8566 7.49333 21.2566 7.16C20.6699 6.81333 20.0032 6.64 19.2566 6.64C18.5099 6.64 17.8366 6.81333 17.2366 7.16C16.6499 7.49333 16.1832 7.97333 15.8366 8.6C15.5032 9.22667 15.3366 9.94 15.3366 10.74C15.3366 11.54 15.5032 12.2533 15.8366 12.88C16.1832 13.5067 16.6499 13.9933 17.2366 14.34C17.8366 14.6733 18.5099 14.84 19.2566 14.84ZM32.8556 5.4C34.1756 5.4 35.2223 5.78667 35.9956 6.56C36.7823 7.32 37.1756 8.43333 37.1756 9.9V16H35.7556V10.04C35.7556 8.94667 35.4823 8.11333 34.9356 7.54C34.389 6.96667 33.609 6.68 32.5956 6.68C31.4623 6.68 30.5623 7.02 29.8956 7.7C29.2423 8.36667 28.9156 9.29333 28.9156 10.48V16H27.4956V5.48H28.8556V7.42C29.2423 6.78 29.7756 6.28667 30.4556 5.94C31.149 5.58 31.949 5.4 32.8556 5.4ZM46.2108 15.36C45.9441 15.6 45.6174 15.7867 45.2308 15.92C44.8441 16.04 44.4374 16.1 44.0108 16.1C43.0241 16.1 42.2641 15.8333 41.7308 15.3C41.1974 14.7667 40.9308 14.0133 40.9308 13.04V3.18H42.3508V5.48H45.5308V6.68H42.3508V12.96C42.3508 13.5867 42.5041 14.0667 42.8108 14.4C43.1174 14.72 43.5641 14.88 44.1508 14.88C44.7908 14.88 45.3108 14.7 45.7108 14.34L46.2108 15.36ZM48.7847 5.48H50.2047V16H48.7847V5.48ZM49.5047 3.18C49.2114 3.18 48.9647 3.08 48.7647 2.88C48.5647 2.68 48.4647 2.44 48.4647 2.16C48.4647 1.89333 48.5647 1.66 48.7647 1.46C48.9647 1.26 49.2114 1.16 49.5047 1.16C49.798 1.16 50.0447 1.26 50.2447 1.46C50.4447 1.64667 50.5447 1.87333 50.5447 2.14C50.5447 2.43333 50.4447 2.68 50.2447 2.88C50.0447 3.08 49.798 3.18 49.5047 3.18ZM59.5158 5.4C60.8358 5.4 61.8824 5.78667 62.6558 6.56C63.4424 7.32 63.8358 8.43333 63.8358 9.9V16H62.4158V10.04C62.4158 8.94667 62.1424 8.11333 61.5958 7.54C61.0491 6.96667 60.2691 6.68 59.2558 6.68C58.1224 6.68 57.2224 7.02 56.5558 7.7C55.9024 8.36667 55.5758 9.29333 55.5758 10.48V16H54.1558V5.48H55.5158V7.42C55.9024 6.78 56.4358 6.28667 57.1158 5.94C57.8091 5.58 58.6091 5.4 59.5158 5.4ZM77.1709 5.48V16H75.8109V14.08C75.4376 14.72 74.9243 15.22 74.2709 15.58C73.6176 15.9267 72.8709 16.1 72.0309 16.1C70.6576 16.1 69.5709 15.72 68.7709 14.96C67.9843 14.1867 67.5909 13.06 67.5909 11.58V5.48H69.0109V11.44C69.0109 12.5467 69.2843 13.3867 69.8309 13.96C70.3776 14.5333 71.1576 14.82 72.1709 14.82C73.2776 14.82 74.1509 14.4867 74.7909 13.82C75.4309 13.14 75.7509 12.2 75.7509 11V5.48H77.1709ZM85.648 14.84C86.3013 14.84 86.9013 14.7267 87.448 14.5C88.008 14.26 88.4813 13.9133 88.868 13.46L89.668 14.38C89.2013 14.94 88.6213 15.3667 87.928 15.66C87.2346 15.9533 86.468 16.1 85.628 16.1C84.548 16.1 83.588 15.8733 82.748 15.42C81.908 14.9533 81.2546 14.3133 80.788 13.5C80.3213 12.6867 80.088 11.7667 80.088 10.74C80.088 9.71333 80.308 8.79333 80.748 7.98C81.2013 7.16667 81.8213 6.53333 82.608 6.08C83.3946 5.62667 84.288 5.4 85.288 5.4C86.2213 5.4 87.0613 5.61333 87.808 6.04C88.568 6.46667 89.168 7.06 89.608 7.82C90.0613 8.58 90.3013 9.44667 90.328 10.42L81.688 12.1C81.9546 12.9533 82.4346 13.6267 83.128 14.12C83.8346 14.6 84.6746 14.84 85.648 14.84ZM85.288 6.62C84.5546 6.62 83.8946 6.79333 83.308 7.14C82.7346 7.47333 82.2813 7.94667 81.948 8.56C81.628 9.16 81.468 9.85333 81.468 10.64C81.468 10.84 81.4746 10.9867 81.488 11.08L88.908 9.64C88.748 8.76 88.3413 8.04 87.688 7.48C87.0346 6.90667 86.2346 6.62 85.288 6.62ZM118.806 2V10.34C118.806 12.26 118.312 13.72 117.326 14.72C116.352 15.7067 114.952 16.2 113.126 16.2C112.139 16.2 111.259 16.0467 110.486 15.74C109.726 15.42 109.119 14.9867 108.666 14.44C108.199 14.9867 107.586 15.42 106.826 15.74C106.079 16.0467 105.212 16.2 104.226 16.2C102.399 16.2 100.992 15.7 100.006 14.7C99.019 13.7 98.5256 12.2467 98.5256 10.34V2H101.126V10.26C101.126 11.5267 101.386 12.4533 101.906 13.04C102.439 13.6267 103.212 13.92 104.226 13.92C106.319 13.92 107.366 12.7 107.366 10.26V2H109.966V10.26C109.966 12.7 111.019 13.92 113.126 13.92C115.192 13.92 116.226 12.7 116.226 10.26V2H118.806ZM122.234 5.32H124.734V16H122.234V5.32ZM123.494 3.56C123.04 3.56 122.66 3.42 122.354 3.14C122.047 2.84667 121.894 2.48667 121.894 2.06C121.894 1.63333 122.047 1.28 122.354 0.999999C122.66 0.706666 123.04 0.56 123.494 0.56C123.947 0.56 124.327 0.699999 124.634 0.979999C124.94 1.24667 125.094 1.58667 125.094 2C125.094 2.44 124.94 2.81333 124.634 3.12C124.34 3.41333 123.96 3.56 123.494 3.56ZM134.015 15.42C133.722 15.66 133.362 15.84 132.935 15.96C132.522 16.08 132.082 16.14 131.615 16.14C130.442 16.14 129.535 15.8333 128.895 15.22C128.255 14.6067 127.935 13.7133 127.935 12.54V2.96H130.435V5.4H133.295V7.4H130.435V12.48C130.435 13 130.562 13.4 130.815 13.68C131.082 13.9467 131.448 14.08 131.915 14.08C132.475 14.08 132.942 13.9333 133.315 13.64L134.015 15.42ZM142.141 5.2C143.488 5.2 144.568 5.59333 145.381 6.38C146.195 7.16667 146.601 8.33333 146.601 9.88V16H144.101V10.2C144.101 9.26667 143.881 8.56667 143.441 8.1C143.001 7.62 142.375 7.38 141.561 7.38C140.641 7.38 139.915 7.66 139.381 8.22C138.848 8.76667 138.581 9.56 138.581 10.6V16H136.081V1.16H138.581V6.56C138.995 6.12 139.501 5.78667 140.101 5.56C140.715 5.32 141.395 5.2 142.141 5.2ZM175.7 2V10.34C175.7 12.26 175.207 13.72 174.22 14.72C173.247 15.7067 171.847 16.2 170.02 16.2C169.033 16.2 168.153 16.0467 167.38 15.74C166.62 15.42 166.013 14.9867 165.56 14.44C165.093 14.9867 164.48 15.42 163.72 15.74C162.973 16.0467 162.107 16.2 161.12 16.2C159.293 16.2 157.887 15.7 156.9 14.7C155.913 13.7 155.42 12.2467 155.42 10.34V2H158.02V10.26C158.02 11.5267 158.28 12.4533 158.8 13.04C159.333 13.6267 160.107 13.92 161.12 13.92C163.213 13.92 164.26 12.7 164.26 10.26V2H166.86V10.26C166.86 12.7 167.913 13.92 170.02 13.92C172.087 13.92 173.12 12.7 173.12 10.26V2H175.7ZM189.568 5.32V16H187.188V14.62C186.775 15.1267 186.262 15.5067 185.648 15.76C185.048 16.0133 184.382 16.14 183.648 16.14C182.608 16.14 181.675 15.9133 180.848 15.46C180.035 15.0067 179.395 14.3667 178.928 13.54C178.475 12.7133 178.248 11.7533 178.248 10.66C178.248 9.56667 178.475 8.61333 178.928 7.8C179.395 6.97333 180.035 6.33333 180.848 5.88C181.675 5.42667 182.608 5.2 183.648 5.2C184.342 5.2 184.975 5.32 185.548 5.56C186.135 5.8 186.642 6.15333 187.068 6.62V5.32H189.568ZM183.928 14C184.848 14 185.608 13.6933 186.208 13.08C186.808 12.4667 187.108 11.66 187.108 10.66C187.108 9.66 186.808 8.85333 186.208 8.24C185.608 7.62667 184.848 7.32 183.928 7.32C183.008 7.32 182.248 7.62667 181.648 8.24C181.062 8.85333 180.768 9.66 180.768 10.66C180.768 11.66 181.062 12.4667 181.648 13.08C182.248 13.6933 183.008 14 183.928 14ZM196.359 16.14C195.253 16.14 194.386 15.84 193.759 15.24C193.146 14.6267 192.839 13.7667 192.839 12.66V1.16H195.339V12.48C195.339 13.5467 195.839 14.08 196.839 14.08C197.173 14.08 197.473 14.0133 197.739 13.88L197.859 15.88C197.393 16.0533 196.893 16.14 196.359 16.14ZM203.078 16.14C201.971 16.14 201.105 15.84 200.478 15.24C199.865 14.6267 199.558 13.7667 199.558 12.66V1.16H202.058V12.48C202.058 13.5467 202.558 14.08 203.558 14.08C203.891 14.08 204.191 14.0133 204.458 13.88L204.578 15.88C204.111 16.0533 203.611 16.14 203.078 16.14ZM211.161 14.02C212.321 14.02 213.288 13.6333 214.061 12.86L215.381 14.4C214.915 14.9733 214.315 15.4067 213.581 15.7C212.848 15.9933 212.021 16.14 211.101 16.14C209.928 16.14 208.895 15.9067 208.001 15.44C207.108 14.9733 206.415 14.3267 205.921 13.5C205.441 12.66 205.201 11.7133 205.201 10.66C205.201 9.62 205.435 8.68667 205.901 7.86C206.381 7.02 207.035 6.36667 207.861 5.9C208.701 5.43333 209.648 5.2 210.701 5.2C211.701 5.2 212.608 5.42 213.421 5.86C214.248 6.28667 214.901 6.90667 215.381 7.72C215.861 8.52 216.101 9.46 216.101 10.54L207.921 12.14C208.175 12.7533 208.581 13.22 209.141 13.54C209.701 13.86 210.375 14.02 211.161 14.02ZM210.701 7.2C209.781 7.2 209.035 7.5 208.461 8.1C207.901 8.7 207.621 9.50667 207.621 10.52V10.54L213.661 9.38C213.488 8.72667 213.135 8.2 212.601 7.8C212.081 7.4 211.448 7.2 210.701 7.2ZM224.503 15.42C224.21 15.66 223.85 15.84 223.423 15.96C223.01 16.08 222.57 16.14 222.103 16.14C220.93 16.14 220.023 15.8333 219.383 15.22C218.743 14.6067 218.423 13.7133 218.423 12.54V2.96H220.923V5.4H223.783V7.4H220.923V12.48C220.923 13 221.05 13.4 221.303 13.68C221.57 13.9467 221.937 14.08 222.403 14.08C222.963 14.08 223.43 13.9333 223.803 13.64L224.503 15.42Z" fill="white"/>
</svg>
